<svg xmlns="http://www.w3.org/2000/svg" width="160.328" height="59.36" viewBox="0 0 160.328 59.36">
  <g id="Dritix_BLANCO" data-name="Dritix BLANCO" transform="translate(-9.964 -6.132)">
    <path id="Caminho_5552" data-name="Caminho 5552" d="M64.013,29.734q0,7.32-4.166,11.041-4.125,3.68-11.608,3.68H40.07V15.578h9.06A17.721,17.721,0,0,1,56.976,17.2a11.685,11.685,0,0,1,5.177,4.772A14.919,14.919,0,0,1,64.013,29.734Zm-6.35.162q0-4.813-2.1-7.037a7.926,7.926,0,0,0-6.107-2.265H46.177V39.4h2.629Q57.663,39.4,57.663,29.9Zm16.39,14.52q-.364.081-.971.2a7.05,7.05,0,0,1-1.375.121,3.45,3.45,0,0,1-2.1-.526,2.208,2.208,0,0,1-.688-1.86V29.531a3.136,3.136,0,0,1,.485-1.78,4.422,4.422,0,0,1,1.416-1.294A11.591,11.591,0,0,1,73.891,25.2a15.819,15.819,0,0,1,4-.485q3.842,0,3.842,2.386a3.015,3.015,0,0,1-.2,1.092,3.8,3.8,0,0,1-.364.809,11.075,11.075,0,0,0-2.305-.2,10.645,10.645,0,0,0-2.669.324,9.38,9.38,0,0,0-2.144.809ZM85.194,25.447q.324-.081.93-.2a7.456,7.456,0,0,1,1.375-.121,3.343,3.343,0,0,1,2.1.526,2.208,2.208,0,0,1,.688,1.86V44.415q-.324.081-.971.2a6.818,6.818,0,0,1-1.335.121,3.532,3.532,0,0,1-2.144-.526,2.283,2.283,0,0,1-.647-1.86Zm-.4-5.864A2.7,2.7,0,0,1,85.6,17.6a2.906,2.906,0,0,1,2.144-.849,2.773,2.773,0,0,1,2.1.849,2.7,2.7,0,0,1,.809,1.982,2.881,2.881,0,0,1-.809,2.063,2.845,2.845,0,0,1-2.1.809,2.984,2.984,0,0,1-2.144-.809A2.881,2.881,0,0,1,84.79,19.582ZM100.713,38.51a2.158,2.158,0,0,0,.768,1.86,3.825,3.825,0,0,0,2.224.566,5.988,5.988,0,0,0,1.375-.162,7.318,7.318,0,0,0,1.294-.4,2.469,2.469,0,0,1,.526.809,2.164,2.164,0,0,1,.243,1.052,2.432,2.432,0,0,1-1.092,2.022,6.243,6.243,0,0,1-3.519.768,8.158,8.158,0,0,1-5.056-1.416q-1.82-1.456-1.82-4.772V20.27q.324-.081.93-.2a7.457,7.457,0,0,1,1.375-.121,3.263,3.263,0,0,1,2.063.526,2.208,2.208,0,0,1,.688,1.86v3.357h5.945a3.636,3.636,0,0,1,.364.849,3.828,3.828,0,0,1,.162,1.132,2.1,2.1,0,0,1-.485,1.537,1.749,1.749,0,0,1-1.294.485h-4.692Zm10.627-13.064q.324-.081.93-.2a7.457,7.457,0,0,1,1.375-.121,3.343,3.343,0,0,1,2.1.526,2.208,2.208,0,0,1,.688,1.86V44.415q-.323.081-.971.2a6.818,6.818,0,0,1-1.335.121,3.532,3.532,0,0,1-2.144-.526,2.283,2.283,0,0,1-.647-1.86Zm-.4-5.864a2.7,2.7,0,0,1,.809-1.982,2.906,2.906,0,0,1,2.144-.849,2.773,2.773,0,0,1,2.1.849,2.7,2.7,0,0,1,.809,1.982,2.881,2.881,0,0,1-.809,2.063,2.845,2.845,0,0,1-2.1.809,2.984,2.984,0,0,1-2.144-.809A2.881,2.881,0,0,1,110.936,19.582ZM126.86,33.171l-7.118-10.8h6.835l4.287,7.037,4.328-7.037h6.835l-7.2,10.8,7.523,11.284h-6.835l-4.651-7.563-4.651,7.563h-6.835Z" transform="translate(27.94 11.967)" fill="#fff"/>
    <path id="Caminho_5553" data-name="Caminho 5553" d="M8.8,36.431,22.03,53.395,35.262,36.431C44.8,23.538,41.708,4.539,21.352,4.539,3.37,4.539-1.34,23.2,8.8,36.431Z" transform="translate(10.597 5.594)" fill="none" stroke="#fff" stroke-linecap="round" stroke-width="8"/>
  </g>
</svg>
