<svg width="61" height="84" viewBox="0 0 61 84" fill="none" xmlns="http://www.w3.org/2000/svg">
<path d="M15.686 59.628C15.686 62.4033 14.8963 64.4963 13.317 65.907C11.753 67.3023 9.55267 68 6.716 68H2.07V51.578H7.222C8.93933 51.578 10.4267 51.8847 11.684 52.498C12.9567 53.1113 13.938 54.016 14.628 55.212C15.3333 56.3927 15.686 57.8647 15.686 59.628ZM12.075 59.72C12.075 57.8953 11.6763 56.5613 10.879 55.718C10.0817 54.8593 8.924 54.43 7.406 54.43H5.543V65.125H7.038C10.396 65.125 12.075 63.3233 12.075 59.72ZM21.3954 67.977C21.2574 68.0077 21.0734 68.046 20.8434 68.092C20.6134 68.138 20.3527 68.161 20.0614 68.161C19.5247 68.161 19.1261 68.0613 18.8654 67.862C18.6047 67.6627 18.4744 67.31 18.4744 66.804V59.513C18.4744 59.1143 18.5664 58.777 18.7504 58.501C18.9344 58.225 19.2027 57.9797 19.5554 57.765C20.0307 57.4737 20.6134 57.236 21.3034 57.052C22.0087 56.868 22.7677 56.776 23.5804 56.776C25.0371 56.776 25.7654 57.2283 25.7654 58.133C25.7654 58.3477 25.7271 58.5547 25.6504 58.754C25.5891 58.938 25.5201 59.0913 25.4434 59.214C25.0907 59.1373 24.6537 59.099 24.1324 59.099C23.5957 59.099 23.0897 59.1603 22.6144 59.283C22.1391 59.4057 21.7327 59.559 21.3954 59.743V67.977ZM27.731 57.19C27.8537 57.1593 28.03 57.121 28.26 57.075C28.5053 57.029 28.766 57.006 29.042 57.006C29.594 57.006 29.9927 57.1057 30.238 57.305C30.4987 57.5043 30.629 57.857 30.629 58.363V67.977C30.5063 68.0077 30.3223 68.046 30.077 68.092C29.847 68.138 29.594 68.161 29.318 68.161C28.766 68.161 28.3597 68.0613 28.099 67.862C27.8537 67.6627 27.731 67.31 27.731 66.804V57.19ZM27.501 53.855C27.501 53.4103 27.6543 53.0347 27.961 52.728C28.283 52.406 28.6893 52.245 29.18 52.245C29.6707 52.245 30.0693 52.406 30.376 52.728C30.6827 53.0347 30.836 53.4103 30.836 53.855C30.836 54.315 30.6827 54.706 30.376 55.028C30.0693 55.3347 29.6707 55.488 29.18 55.488C28.6893 55.488 28.283 55.3347 27.961 55.028C27.6543 54.706 27.501 54.315 27.501 53.855ZM36.5565 64.619C36.5565 65.1097 36.7022 65.4623 36.9935 65.677C37.3002 65.8917 37.7219 65.999 38.2585 65.999C38.5192 65.999 38.7799 65.9683 39.0405 65.907C39.3165 65.8457 39.5619 65.769 39.7765 65.677C39.8992 65.7997 39.9989 65.953 40.0755 66.137C40.1675 66.3057 40.2135 66.505 40.2135 66.735C40.2135 67.195 40.0065 67.5783 39.5925 67.885C39.1785 68.1763 38.5115 68.322 37.5915 68.322C36.3802 68.322 35.4219 68.0537 34.7165 67.517C34.0265 66.965 33.6815 66.0603 33.6815 64.803V54.246C33.8042 54.2153 33.9805 54.177 34.2105 54.131C34.4559 54.085 34.7165 54.062 34.9925 54.062C35.5292 54.062 35.9202 54.1617 36.1655 54.361C36.4262 54.5603 36.5565 54.913 36.5565 55.419V57.328H39.9375C40.0142 57.4507 40.0832 57.6117 40.1445 57.811C40.2059 58.0103 40.2365 58.225 40.2365 58.455C40.2365 58.8537 40.1445 59.145 39.9605 59.329C39.7765 59.513 39.5312 59.605 39.2245 59.605H36.5565V64.619ZM42.6001 57.19C42.7228 57.1593 42.8991 57.121 43.1291 57.075C43.3745 57.029 43.6351 57.006 43.9111 57.006C44.4631 57.006 44.8618 57.1057 45.1071 57.305C45.3678 57.5043 45.4981 57.857 45.4981 58.363V67.977C45.3755 68.0077 45.1915 68.046 44.9461 68.092C44.7161 68.138 44.4631 68.161 44.1871 68.161C43.6351 68.161 43.2288 68.0613 42.9681 67.862C42.7228 67.6627 42.6001 67.31 42.6001 66.804V57.19ZM42.3701 53.855C42.3701 53.4103 42.5235 53.0347 42.8301 52.728C43.1521 52.406 43.5585 52.245 44.0491 52.245C44.5398 52.245 44.9385 52.406 45.2451 52.728C45.5518 53.0347 45.7051 53.4103 45.7051 53.855C45.7051 54.315 45.5518 54.706 45.2451 55.028C44.9385 55.3347 44.5398 55.488 44.0491 55.488C43.5585 55.488 43.1521 55.3347 42.8301 55.028C42.5235 54.706 42.3701 54.315 42.3701 53.855ZM51.4257 61.583L47.3777 55.442H51.2647L53.7027 59.444L56.1637 55.442H60.0507L55.9567 61.583L60.2347 68H56.3477L53.7027 63.699L51.0577 68H47.1707L51.4257 61.583Z" fill="url(#paint0_linear)"/>
<path d="M18.4538 27.2723L28.3008 39.8967L38.1477 27.2723C45.247 17.6778 42.9449 3.53857 27.7957 3.53857C14.4139 3.53857 10.9088 17.4253 18.4538 27.2723Z" stroke="url(#paint1_linear)" stroke-width="7" stroke-linecap="round"/>
<path d="M38.276 13.8905C37.5768 7.83083 32.9738 -0.198253 26.9141 0.00373668C20.8544 0.205727 15.2338 3.28606 12.2699 10.1032C9.74505 15.9104 11.7649 21.7176 11.7649 21.7176L19.3395 21.9701C19.3395 21.9701 18.6263 20.7989 18.3296 18.1828C18.0376 15.6088 18.1479 11.6038 19.8444 9.85073C23.2652 6.31592 30.1964 7.21765 30.9539 7.32586C34.4887 7.83083 37.2661 10.3557 38.276 13.8905Z" fill="url(#paint2_linear)"/>
<defs>
<linearGradient id="paint0_linear" x1="56.5267" y1="39.36" x2="4.39716" y2="44.8807" gradientUnits="userSpaceOnUse">
<stop stop-color="#FF6834"/>
<stop offset="0.114583" stop-color="#FF5C3F"/>
<stop offset="0.28125" stop-color="#FF5148"/>
<stop offset="0.572917" stop-color="#FF4A4E"/>
<stop offset="1" stop-color="#FF2470"/>
</linearGradient>
<linearGradient id="paint1_linear" x1="53.5791" y1="31.3121" x2="36.1575" y2="44.6939" gradientUnits="userSpaceOnUse">
<stop offset="0.145833" stop-color="#FF940F"/>
<stop offset="0.223958" stop-color="#FF801E"/>
<stop offset="0.390625" stop-color="#FF6139"/>
<stop offset="0.5625" stop-color="#FF4751"/>
<stop offset="0.65625" stop-color="#FF3F56"/>
<stop offset="0.838542" stop-color="#FF2171"/>
<stop offset="0.953125" stop-color="#FF236F"/>
<stop offset="1" stop-color="#FF940F"/>
</linearGradient>
<linearGradient id="paint2_linear" x1="27.4191" y1="0.508706" x2="12.0174" y2="25.2524" gradientUnits="userSpaceOnUse">
<stop stop-color="#FF3B5A"/>
<stop offset="0.166667" stop-color="#FF3261"/>
<stop offset="0.359375" stop-color="#FF3C5A"/>
<stop offset="0.588542" stop-color="#FF484F"/>
<stop offset="0.755208" stop-color="#FF6A32"/>
<stop offset="0.848958" stop-color="#FF940F"/>
<stop offset="1" stop-color="#FF940F"/>
</linearGradient>
</defs>
</svg>
