<svg width="502" height="310" viewBox="0 0 502 310" fill="none" xmlns="http://www.w3.org/2000/svg">
<g opacity="0.3">
<path opacity="0.3" d="M155.02 75.9878C152.984 67.1744 147.926 70.1964 139.447 67.4853C130.978 64.7742 133.452 55.1009 128.194 52.1177C121.183 48.1385 114.745 51.831 110.382 57.054C103.133 65.7314 98.1768 58.6768 89.5136 62.1895C84.5479 64.2058 86.6664 67.0237 79.9515 68.1606C75.2628 68.9526 70.1805 67.0869 65.5598 68.2287C62.1344 69.0741 59.6515 70.5608 58.8936 73.5877C59.8605 74.0055 60.8614 74.3796 61.8914 74.7197C74.8352 78.9807 92.4969 77.5571 105.577 78.1839C110.042 78.3976 156.463 82.2359 155.02 75.9878Z" fill="url(#paint0_linear)"/>
<path opacity="0.3" d="M187.569 32.6641C185.344 30.1862 182.025 29.1659 178.775 29.9044C175.233 30.7158 173.231 33.8058 169.932 35.0399C164.179 37.1971 156.22 32.9361 151.852 38.4943C146.507 45.2963 142.377 40.1948 142.377 44.8104C142.377 49.4261 179.304 46.0251 197.525 46.268C200.158 46.302 211.586 46.1271 206.664 41.1374C205.138 39.5875 202.957 39.33 200.926 38.9656C198.278 38.4943 191.976 38.232 190.057 36.3517C189.022 35.3411 188.628 33.8835 187.695 32.8001C187.652 32.7564 187.613 32.7078 187.569 32.6641Z" fill="url(#paint1_linear)"/>
</g>
<path d="M293.058 40.841C293.009 38.3534 290.993 36.3031 288.52 36.3031H195.061C192.554 36.3031 190.095 38.4603 190.095 40.9819V266.487C190.095 267.701 190.79 268.863 191.645 269.723C192.5 270.578 193.764 271.059 194.969 271.054L292.688 270.787C293.903 270.782 295.094 270.286 295.944 269.412C296.794 268.537 297.275 267.327 297.251 266.103L293.058 40.841Z" fill="url(#paint2_linear)"/>
<g opacity="0.5">
<g opacity="0.5">
<path opacity="0.5" d="M224.233 62.8746L197.607 62.8405L197.393 49.0957H224.048L224.233 62.8746Z" fill="white"/>
<path opacity="0.5" d="M254.076 62.8697L227.479 62.8308L227.294 49.0957H253.92L254.076 62.8697Z" fill="white"/>
<path opacity="0.5" d="M283.889 62.86L257.317 62.826L257.166 49.0957H283.763L283.889 62.86Z" fill="white"/>
</g>
<g opacity="0.5">
<path opacity="0.5" d="M224.563 87.5366L197.986 87.556L197.777 73.9035L224.379 73.8938L224.563 87.5366Z" fill="white"/>
<path opacity="0.5" d="M254.358 87.5171L227.804 87.5366L227.625 73.8938L254.202 73.8792L254.358 87.5171Z" fill="white"/>
<g opacity="0.5">
<path opacity="0.5" d="M284.118 87.5026L257.593 87.5171L257.438 73.8792L283.991 73.8695L284.118 87.5026Z" fill="white"/>
</g>
</g>
<g opacity="0.5">
<path opacity="0.5" d="M224.894 112.033L198.365 112.063L198.156 98.4586L224.714 98.4343L224.894 112.033Z" fill="white"/>
<path opacity="0.5" d="M254.634 112.004L228.129 112.029L227.95 98.4343L254.479 98.41L254.634 112.004Z" fill="white"/>
<path opacity="0.5" d="M284.346 111.97L257.865 111.999L257.715 98.41L284.22 98.3857L284.346 111.97Z" fill="white"/>
</g>
<g opacity="0.5">
<path opacity="0.5" d="M225.224 136.443L198.739 136.482L198.53 122.926L225.045 122.892L225.224 136.443Z" fill="white"/>
<path opacity="0.5" d="M254.917 136.399L228.456 136.438L228.276 122.887L254.761 122.858L254.917 136.399Z" fill="white"/>
<path opacity="0.5" d="M284.575 136.355L258.138 136.394L257.987 122.853L284.448 122.819L284.575 136.355Z" fill="white"/>
</g>
<g opacity="0.5">
<path opacity="0.5" d="M225.555 160.77L199.113 160.818L198.909 147.311L225.375 147.268L225.555 160.77Z" fill="white"/>
<path opacity="0.5" d="M255.193 160.711L228.776 160.765L228.596 147.258L255.038 147.214L255.193 160.711Z" fill="white"/>
<path opacity="0.5" d="M284.798 160.658L258.41 160.706L258.259 147.209L284.672 147.166L284.798 160.658Z" fill="white"/>
</g>
<g opacity="0.5">
<path opacity="0.5" d="M225.885 185.009L199.487 185.072L199.283 171.609L225.7 171.556L225.885 185.009Z" fill="white"/>
<path opacity="0.5" d="M255.47 184.941L229.102 185.004L228.922 171.546L255.315 171.492L255.47 184.941Z" fill="white"/>
<path opacity="0.5" d="M285.026 184.878L258.682 184.936L258.531 171.488L284.9 171.429L285.026 184.878Z" fill="white"/>
</g>
<g opacity="0.5">
<path opacity="0.5" d="M226.21 209.17L199.861 209.238L199.657 195.824L226.031 195.756L226.21 209.17Z" fill="white"/>
<path opacity="0.5" d="M255.747 209.088L229.422 209.161L229.242 195.751L255.591 195.683L255.747 209.088Z" fill="white"/>
<path opacity="0.5" d="M285.25 209.01L258.954 209.083L258.803 195.678L285.123 195.61L285.25 209.01Z" fill="white"/>
</g>
<g opacity="0.5">
<path opacity="0.5" d="M226.536 233.245L200.235 233.327L200.026 219.956L226.356 219.879L226.536 233.245Z" fill="white"/>
<path opacity="0.5" d="M256.019 233.152L229.743 233.235L229.563 219.869L255.868 219.796L256.019 233.152Z" fill="white"/>
<path opacity="0.5" d="M285.473 233.06L259.221 233.143L259.075 219.786L285.351 219.709L285.473 233.06Z" fill="white"/>
</g>
<g opacity="0.5">
<path opacity="0.5" d="M226.861 257.236L200.604 257.328L200.396 244.006L226.682 243.919L226.861 257.236Z" fill="white"/>
<path opacity="0.5" d="M256.296 257.134L230.063 257.226L229.883 243.909L256.14 243.822L256.296 257.134Z" fill="white"/>
<path opacity="0.5" d="M285.696 257.032L259.493 257.124L259.342 243.812L285.575 243.725L285.696 257.032Z" fill="white"/>
</g>
</g>
<path d="M210.395 112.398C210.357 111.003 208.583 109.857 206.416 109.857H124.38C122.179 109.857 120.022 111.062 120.022 112.476V238.681C120.022 239.361 120.629 240.013 121.382 240.494C122.131 240.975 123.243 241.242 124.298 241.242L210.07 241.091C211.139 241.091 212.183 240.814 212.927 240.323C213.675 239.833 214.093 239.157 214.073 238.472L210.395 112.398Z" fill="url(#paint3_linear)"/>
<g opacity="0.5">
<g opacity="0.5">
<path opacity="0.5" d="M149.981 124.729L126.61 124.709L126.426 117.018H149.821L149.981 124.729Z" fill="white"/>
<path opacity="0.5" d="M176.175 124.729L152.828 124.705L152.668 117.018H176.039L176.175 124.729Z" fill="white"/>
<path opacity="0.5" d="M202.344 124.724L179.022 124.705L178.886 117.018H202.233L202.344 124.724Z" fill="white"/>
</g>
<g opacity="0.5">
<path opacity="0.5" d="M150.273 138.533L126.946 138.543L126.761 130.905L150.113 130.9L150.273 138.533Z" fill="white"/>
<path opacity="0.5" d="M176.423 138.522L153.115 138.532L152.96 130.899L176.287 130.889L176.423 138.522Z" fill="white"/>
<path opacity="0.5" d="M202.544 138.512L179.265 138.522L179.129 130.889L202.432 130.885L202.544 138.512Z" fill="white"/>
</g>
<g opacity="0.5">
<path opacity="0.5" d="M150.564 152.244L127.276 152.258L127.091 144.645L150.404 144.635L150.564 152.244Z" fill="white"/>
<path opacity="0.5" d="M176.665 152.223L153.402 152.243L153.246 144.629L176.529 144.62L176.665 152.223Z" fill="white"/>
<path opacity="0.5" d="M202.742 152.209L179.503 152.223L179.372 144.615L202.635 144.605L202.742 152.209Z" fill="white"/>
</g>
<g opacity="0.5">
<path opacity="0.5" d="M150.856 165.905L127.607 165.924L127.422 158.34L150.695 158.321L150.856 165.905Z" fill="white"/>
<path opacity="0.5" d="M176.914 165.881L153.689 165.9L153.528 158.316L176.778 158.301L176.914 165.881Z" fill="white"/>
<path opacity="0.5" d="M202.947 165.856L179.741 165.876L179.61 158.297L202.835 158.277L202.947 165.856Z" fill="white"/>
</g>
<g opacity="0.5">
<path opacity="0.5" d="M151.143 179.519L127.937 179.543L127.752 171.983L150.982 171.959L151.143 179.519Z" fill="white"/>
<path opacity="0.5" d="M177.157 179.485L153.97 179.514L153.815 171.959L177.02 171.934L177.157 179.485Z" fill="white"/>
<path opacity="0.5" d="M203.141 179.456L179.984 179.485L179.848 171.93L203.034 171.905L203.141 179.456Z" fill="white"/>
</g>
<g opacity="0.5">
<path opacity="0.5" d="M151.429 193.084L128.262 193.118L128.083 185.582L151.274 185.553L151.429 193.084Z" fill="white"/>
<path opacity="0.5" d="M177.399 193.045L154.257 193.079L154.097 185.548L177.263 185.519L177.399 193.045Z" fill="white"/>
<path opacity="0.5" d="M203.34 193.006L180.222 193.04L180.086 185.514L203.233 185.485L203.34 193.006Z" fill="white"/>
</g>
<g opacity="0.5">
<path opacity="0.5" d="M151.721 206.605L128.593 206.644L128.408 199.133L151.56 199.099L151.721 206.605Z" fill="white"/>
<path opacity="0.5" d="M177.642 206.561L154.539 206.6L154.378 199.094L177.506 199.06L177.642 206.561Z" fill="white"/>
<path opacity="0.5" d="M203.54 206.513L180.455 206.557L180.324 199.055L203.428 199.016L203.54 206.513Z" fill="white"/>
</g>
<g opacity="0.5">
<path opacity="0.5" d="M152.003 220.078L128.919 220.122L128.739 212.639L151.847 212.596L152.003 220.078Z" fill="white"/>
<path opacity="0.5" d="M177.885 220.024L154.821 220.073L154.66 212.591L177.749 212.552L177.885 220.024Z" fill="white"/>
<path opacity="0.5" d="M203.734 219.976L180.694 220.02L180.562 212.547L203.627 212.503L203.734 219.976Z" fill="white"/>
</g>
<g opacity="0.5">
<path opacity="0.5" d="M152.289 233.507L129.244 233.556L129.064 226.098L152.133 226.049L152.289 233.507Z" fill="white"/>
<path opacity="0.5" d="M178.123 233.449L155.097 233.497L154.942 226.044L177.992 225.996L178.123 233.449Z" fill="white"/>
<path opacity="0.5" d="M203.933 233.39L180.931 233.439L180.8 225.991L203.821 225.942L203.933 233.39Z" fill="white"/>
</g>
</g>
<path d="M77.8868 75.4825C74.9812 76.6971 72.1388 78.5968 71.1865 80.652C66.9059 89.9221 76.2154 101.476 79.8352 109.361C86.0495 122.907 89.232 137.973 87.2982 152.85C85.2041 168.971 84.485 184.727 87.959 200.765C89.7519 209.03 92.9782 217.683 99.0079 223.882C110.397 235.586 135.658 226.36 139.307 211.77C142.217 200.134 139.52 187.987 135.565 176.963C128.919 158.413 119.332 141.097 112.569 122.601C107.399 108.457 106.296 79.4714 88.6441 74.6274C85.4228 73.7383 80.9721 74.1901 77.8868 75.4825Z" fill="url(#paint4_linear)"/>
<path d="M119.191 251.95C119.157 251.95 119.128 251.95 119.094 251.945C118.696 251.892 118.414 251.527 118.467 251.129C125.041 201.115 114.308 157.631 104.143 129.961C93.1286 99.9599 80.3889 81.5557 80.2625 81.3759C80.0342 81.0455 80.1119 80.5937 80.4423 80.3605C80.7727 80.1321 81.2246 80.2099 81.4578 80.5402C81.5841 80.7249 94.4162 99.2505 105.499 129.412C115.727 157.247 126.528 200.994 119.915 251.318C119.866 251.683 119.551 251.95 119.191 251.95Z" fill="url(#paint5_linear)"/>
<path d="M101.301 215.482C98.7161 207.616 91.8215 200.566 86.5934 193.511C83.8288 189.78 81.4529 185.888 80.0292 181.443C78.6153 177.021 78.2995 171.624 74.4659 168.441C66.7405 162.033 60.1374 170.064 58.3979 178.702C56.3815 188.731 60.7593 201.236 63.179 211.347C64.6366 217.445 65.5112 224.008 67.6345 229.902C71.1474 239.663 76.4483 244.993 83.0222 247.077C89.3289 249.079 96.1798 246.688 99.8871 241.213C103.235 236.267 105.465 228.172 101.301 215.482Z" fill="url(#paint6_linear)"/>
<path d="M98.8617 259.651C98.6382 259.651 98.4147 259.549 98.2738 259.354C97.9726 258.946 68.3243 218.246 64.7336 175.374C64.6996 174.971 64.996 174.621 65.3993 174.587C65.8026 174.553 66.1524 174.85 66.1864 175.253C69.743 217.707 99.1532 258.086 99.4496 258.49C99.6877 258.815 99.6197 259.272 99.2942 259.51C99.163 259.602 99.0123 259.651 98.8617 259.651Z" fill="url(#paint7_linear)"/>
<path d="M403.328 163.952C401.331 159.788 399.903 155.43 399.567 150.683C398.727 138.726 405.68 127.717 410.786 117.422C415.48 107.962 418.969 93.8624 403.134 95.1159C390.52 96.1168 375.686 108.686 373.996 121.799C371.994 137.312 379.549 156.883 370.59 170.972C358.059 190.688 349.021 186.17 349.021 219.441C349.021 233.658 356.898 241.499 365.915 245.819C380.152 252.635 397.128 249.88 408.474 238.905C418.497 229.207 424.454 215.268 422.438 201.27C420.402 187.142 409.314 176.419 403.328 163.952Z" fill="url(#paint8_linear)"/>
<path d="M392.741 271.214C392.415 271.214 392.119 270.996 392.036 270.66C384.184 239.313 379.909 210.895 379.331 186.194C378.869 166.405 380.764 148.934 384.967 134.276C392.158 109.186 403.479 101.102 403.955 100.771C404.285 100.543 404.737 100.625 404.97 100.956C405.199 101.286 405.116 101.738 404.786 101.971C404.757 101.991 401.904 104.012 398.222 109.055C394.815 113.714 389.986 121.974 386.313 134.878C382.178 149.4 380.322 166.716 380.793 186.34C381.386 210.89 385.642 239.143 393.45 270.31C393.547 270.699 393.309 271.098 392.921 271.195C392.857 271.204 392.799 271.214 392.741 271.214Z" fill="url(#paint9_linear)"/>
<path d="M415.898 128.878C415.286 128.713 414.62 128.659 413.906 128.742C409.96 129.194 408.338 133.358 407.181 136.613C406.19 139.402 405.019 142.783 405.602 145.8C406.234 149.065 409.703 151.728 412.22 148.414C415.077 144.649 419.367 138.862 419.396 133.873C419.406 131.39 418.011 129.451 415.898 128.878Z" fill="url(#paint10_linear)"/>
<path d="M454.865 205.565C456.478 194.93 452.616 182.725 450.687 171.478C449.666 165.531 449.195 159.633 450.152 153.642C451.1 147.685 453.898 141.243 451.318 135.311C446.12 123.359 433.759 128.795 426.68 137.798C418.463 148.239 416.219 165.307 413.099 178.445C411.219 186.364 408.386 194.493 407.39 202.563C405.748 215.934 408.77 225.218 415.169 231.491C421.306 237.506 430.649 238.749 438.156 234.571C444.934 230.796 452.261 222.721 454.865 205.565Z" fill="url(#paint11_linear)"/>
<path d="M426.592 255.225C426.242 255.225 425.936 254.972 425.873 254.617C425.844 254.457 423.152 238.215 423.084 215.812C423.021 195.124 425.236 164.783 436.178 137.73C436.329 137.356 436.752 137.176 437.126 137.327C437.5 137.478 437.68 137.9 437.529 138.274C426.679 165.099 424.478 195.226 424.541 215.778C424.609 238.069 427.282 254.214 427.311 254.374C427.379 254.773 427.112 255.147 426.713 255.215C426.67 255.22 426.631 255.225 426.592 255.225Z" fill="url(#paint12_linear)"/>
<path d="M118.628 253.616C206.878 253.616 295.123 253.616 383.373 253.616C383.883 253.616 384.33 253.184 384.471 252.693C384.612 252.203 384.413 251.634 383.976 251.362C377.693 247.441 371.416 243.569 365.133 239.648C364.954 239.536 364.745 239.527 364.531 239.527C288.846 239.527 213.155 239.527 137.47 239.527C137.256 239.527 137.047 239.512 136.868 239.624C130.585 243.545 124.308 247.432 118.025 251.352C117.593 251.624 117.394 252.222 117.535 252.713C117.671 253.204 118.118 253.616 118.628 253.616Z" fill="url(#paint13_linear)"/>
<path d="M76.2976 280.339C192.763 280.339 309.233 280.339 425.698 280.339C426.208 280.339 426.655 279.76 426.796 279.27C426.937 278.779 426.738 278.133 426.3 277.866C420.018 273.945 413.74 270.184 407.458 266.258C407.278 266.147 407.069 266.244 406.855 266.244C302.95 266.244 199.045 266.244 95.1352 266.244C94.9214 266.244 94.7124 266.084 94.5327 266.195C88.2503 270.116 81.9727 273.93 75.6903 277.851C75.2579 278.123 75.0587 278.832 75.1996 279.318C75.3405 279.804 75.7875 280.339 76.2976 280.339Z" fill="url(#paint14_linear)"/>
<path d="M468.635 304.175C462.353 300.254 456.075 296.454 449.793 292.533C449.613 292.422 449.404 292.485 449.19 292.485C317.065 292.485 184.94 292.485 52.8153 292.485C52.6016 292.485 52.3926 292.422 52.2128 292.533C45.9304 296.454 39.6529 300.317 33.3705 304.238C32.938 304.51 32.7388 305.146 32.8797 305.637C33.0206 306.128 33.4677 306.575 33.9778 306.575C178.663 306.575 323.348 306.575 468.037 306.575C468.548 306.575 468.995 306.094 469.136 305.603C469.267 305.112 469.068 304.447 468.635 304.175Z" fill="url(#paint15_linear)"/>
<path d="M169.936 104.561C169.897 104.561 169.858 104.551 169.824 104.527C169.732 104.464 169.708 104.342 169.771 104.25C169.956 103.978 170.135 103.701 170.31 103.424C170.369 103.332 170.49 103.303 170.582 103.361C170.675 103.419 170.704 103.541 170.646 103.633C170.471 103.92 170.286 104.197 170.097 104.473C170.063 104.527 169.999 104.561 169.936 104.561Z" fill="white"/>
<path d="M151.648 114.229C151.031 114.229 150.409 114.205 149.796 114.152C149.685 114.142 149.607 114.045 149.612 113.938C149.622 113.826 149.714 113.748 149.826 113.758C150.428 113.807 151.04 113.831 151.643 113.831H151.755C151.866 113.831 151.954 113.919 151.954 114.03C151.954 114.142 151.866 114.229 151.755 114.229H151.648ZM153.703 114.132C153.601 114.132 153.513 114.055 153.504 113.953C153.494 113.846 153.572 113.744 153.684 113.734C154.32 113.676 154.966 113.588 155.593 113.472C155.7 113.457 155.807 113.525 155.826 113.632C155.846 113.739 155.773 113.846 155.666 113.865C155.025 113.982 154.369 114.074 153.722 114.132C153.713 114.132 153.708 114.132 153.703 114.132ZM147.882 113.909C147.872 113.909 147.858 113.909 147.848 113.904C147.207 113.792 146.561 113.651 145.929 113.486C145.822 113.457 145.759 113.35 145.788 113.243C145.817 113.136 145.924 113.073 146.031 113.102C146.648 113.263 147.285 113.404 147.916 113.51C148.023 113.53 148.096 113.632 148.077 113.739C148.062 113.841 147.979 113.909 147.882 113.909ZM157.527 113.433C157.439 113.433 157.362 113.374 157.337 113.287C157.308 113.18 157.371 113.073 157.478 113.044C158.095 112.874 158.712 112.675 159.315 112.451C159.417 112.412 159.534 112.466 159.572 112.568C159.611 112.67 159.558 112.786 159.456 112.825C158.844 113.054 158.217 113.258 157.59 113.433C157.561 113.433 157.541 113.433 157.527 113.433ZM144.121 112.918C144.097 112.918 144.078 112.913 144.053 112.908C143.441 112.689 142.829 112.437 142.236 112.165C142.134 112.116 142.09 111.999 142.139 111.902C142.183 111.8 142.304 111.761 142.401 111.805C142.984 112.072 143.582 112.32 144.185 112.534C144.287 112.573 144.34 112.684 144.306 112.786C144.282 112.869 144.204 112.918 144.121 112.918ZM161.171 112.072C161.098 112.072 161.025 112.029 160.991 111.961C160.943 111.863 160.986 111.742 161.083 111.693C161.662 111.416 162.235 111.11 162.784 110.785C162.881 110.731 163.003 110.76 163.056 110.853C163.114 110.95 163.08 111.071 162.988 111.125C162.429 111.455 161.846 111.766 161.254 112.048C161.224 112.067 161.195 112.072 161.171 112.072ZM140.594 111.29C140.56 111.29 140.526 111.28 140.497 111.266C139.933 110.94 139.374 110.586 138.84 110.216C138.748 110.153 138.728 110.027 138.791 109.939C138.855 109.847 138.976 109.828 139.068 109.891C139.593 110.255 140.142 110.605 140.696 110.921C140.793 110.974 140.822 111.096 140.769 111.193C140.73 111.251 140.662 111.29 140.594 111.29ZM164.514 110.095C164.451 110.095 164.392 110.066 164.353 110.012C164.29 109.925 164.31 109.798 164.397 109.735C164.645 109.556 164.893 109.376 165.136 109.186C165.403 108.977 165.665 108.764 165.918 108.55C166.001 108.477 166.127 108.487 166.2 108.569C166.273 108.652 166.263 108.778 166.18 108.851C165.923 109.075 165.656 109.288 165.383 109.502C165.136 109.696 164.888 109.881 164.635 110.061C164.596 110.08 164.557 110.095 164.514 110.095ZM137.407 109.065C137.363 109.065 137.314 109.05 137.28 109.016C136.785 108.598 136.294 108.151 135.832 107.69C135.755 107.612 135.755 107.486 135.832 107.408C135.91 107.33 136.036 107.33 136.114 107.408C136.566 107.865 137.047 108.302 137.538 108.71C137.62 108.783 137.635 108.904 137.562 108.992C137.523 109.041 137.465 109.065 137.407 109.065ZM167.468 107.564C167.419 107.564 167.366 107.544 167.327 107.505C167.249 107.427 167.249 107.301 167.322 107.223C167.774 106.767 168.206 106.281 168.61 105.79C168.678 105.708 168.804 105.693 168.892 105.761C168.979 105.829 168.989 105.955 168.921 106.043C168.508 106.543 168.066 107.039 167.609 107.505C167.575 107.544 167.521 107.564 167.468 107.564ZM134.661 106.315C134.603 106.315 134.55 106.291 134.511 106.242C134.341 106.038 134.176 105.834 134.01 105.625C133.772 105.319 133.539 105.003 133.316 104.687C133.252 104.595 133.277 104.473 133.364 104.41C133.456 104.347 133.578 104.371 133.641 104.459C133.86 104.77 134.088 105.081 134.326 105.382C134.486 105.586 134.652 105.79 134.817 105.989C134.89 106.072 134.875 106.198 134.793 106.271C134.749 106.3 134.705 106.315 134.661 106.315ZM132.431 103.128C132.363 103.128 132.295 103.094 132.256 103.026C131.931 102.462 131.625 101.874 131.353 101.281C131.304 101.179 131.348 101.063 131.45 101.019C131.552 100.97 131.668 101.014 131.712 101.116C131.984 101.694 132.281 102.273 132.601 102.826C132.655 102.924 132.626 103.045 132.528 103.099C132.499 103.123 132.465 103.128 132.431 103.128ZM130.789 99.6052C130.706 99.6052 130.633 99.5566 130.599 99.474C130.376 98.8618 130.182 98.2302 130.016 97.5986C129.987 97.4917 130.05 97.3848 130.157 97.3557C130.264 97.3265 130.371 97.3897 130.4 97.4966C130.565 98.1136 130.755 98.7355 130.974 99.338C131.012 99.44 130.959 99.5566 130.852 99.5955C130.833 99.6003 130.813 99.6052 130.789 99.6052Z" fill="white"/>
<path d="M129.793 95.8204C129.696 95.8204 129.613 95.7524 129.599 95.6552C129.54 95.3248 129.492 94.9944 129.453 94.664C129.438 94.5572 129.516 94.4551 129.628 94.4406C129.74 94.426 129.837 94.5037 129.851 94.6155C129.89 94.941 129.939 95.2665 129.997 95.592C130.017 95.6989 129.944 95.801 129.837 95.8204C129.812 95.8204 129.803 95.8204 129.793 95.8204Z" fill="white"/>
<path d="M133.831 78.8738C133.792 78.8738 133.748 78.8592 133.714 78.8349C133.627 78.7669 133.607 78.6454 133.675 78.558C133.874 78.2907 134.078 78.0235 134.292 77.766C134.36 77.6834 134.487 77.6688 134.574 77.7368C134.662 77.8049 134.671 77.9312 134.603 78.0186C134.394 78.2762 134.195 78.5337 133.996 78.796C133.952 78.8446 133.894 78.8738 133.831 78.8738Z" fill="white"/>
<path d="M173.265 87.2839C173.172 87.2839 173.09 87.2208 173.07 87.1284C172.924 86.4628 172.745 85.7972 172.536 85.151C172.502 85.0441 172.56 84.9324 172.667 84.8984C172.774 84.8644 172.886 84.9227 172.92 85.0247C173.133 85.6855 173.313 86.3608 173.464 87.041C173.488 87.1479 173.42 87.2548 173.313 87.2791C173.294 87.2839 173.279 87.2839 173.265 87.2839ZM172.001 83.3533C171.924 83.3533 171.851 83.3096 171.817 83.2319C171.549 82.6051 171.248 81.9881 170.923 81.3905C170.869 81.2933 170.903 81.1719 171 81.1184C171.098 81.065 171.219 81.099 171.272 81.1961C171.603 81.8035 171.909 82.4351 172.186 83.0715C172.23 83.1736 172.181 83.2902 172.084 83.3339C172.05 83.3485 172.026 83.3533 172.001 83.3533ZM170.024 79.724C169.961 79.724 169.897 79.6949 169.859 79.6366C169.572 79.209 169.261 78.7814 168.94 78.3685C168.843 78.2421 168.741 78.1158 168.639 77.9895C168.571 77.902 168.581 77.7806 168.668 77.7077C168.751 77.6397 168.877 77.6494 168.95 77.7369C169.052 77.8632 169.154 77.9944 169.256 78.1207C169.582 78.5385 169.897 78.9758 170.194 79.4131C170.257 79.5054 170.233 79.6268 170.14 79.69C170.101 79.7143 170.063 79.724 170.024 79.724ZM135.823 76.5465C135.774 76.5465 135.721 76.5271 135.682 76.4882C135.604 76.4105 135.604 76.2841 135.682 76.2064C136.168 75.7157 136.683 75.2396 137.212 74.7877C137.295 74.7148 137.421 74.7294 137.494 74.812C137.567 74.8946 137.552 75.0209 137.47 75.0938C136.95 75.5359 136.44 76.0023 135.964 76.4833C135.93 76.5271 135.876 76.5465 135.823 76.5465ZM167.41 76.5222C167.356 76.5222 167.308 76.5028 167.269 76.4639C166.793 75.9781 166.287 75.5116 165.767 75.0695C165.685 74.9966 165.675 74.8752 165.743 74.7877C165.816 74.7051 165.937 74.6905 166.025 74.7634C166.555 75.2104 167.07 75.6865 167.555 76.1821C167.633 76.2599 167.633 76.3862 167.555 76.4639C167.512 76.5028 167.463 76.5222 167.41 76.5222ZM138.986 73.884C138.923 73.884 138.859 73.8549 138.821 73.7966C138.757 73.7043 138.782 73.5828 138.869 73.5196C139.438 73.1212 140.03 72.7471 140.633 72.407C140.73 72.3536 140.852 72.3876 140.905 72.4799C140.958 72.5771 140.924 72.6985 140.832 72.752C140.239 73.0872 139.656 73.4565 139.098 73.8452C139.064 73.8743 139.025 73.884 138.986 73.884ZM164.251 73.8646C164.213 73.8646 164.174 73.8549 164.14 73.8306C163.581 73.4419 162.998 73.0775 162.405 72.7423C162.308 72.6888 162.274 72.5674 162.327 72.4702C162.381 72.373 162.502 72.339 162.6 72.3924C163.202 72.7325 163.8 73.1066 164.368 73.5002C164.46 73.5634 164.48 73.6848 164.417 73.7771C164.378 73.8306 164.315 73.8646 164.251 73.8646ZM142.581 71.8483C142.504 71.8483 142.431 71.8046 142.402 71.7317C142.358 71.6296 142.402 71.513 142.504 71.4693C143.135 71.1875 143.791 70.93 144.447 70.7065C144.554 70.6725 144.666 70.726 144.7 70.8328C144.734 70.9349 144.68 71.0515 144.573 71.0855C143.927 71.3041 143.286 71.5568 142.664 71.8337C142.635 71.8434 142.606 71.8483 142.581 71.8483ZM160.656 71.8386C160.627 71.8386 160.603 71.8337 160.573 71.8191C159.951 71.5422 159.31 71.2944 158.664 71.0758C158.562 71.0418 158.504 70.9252 158.538 70.8231C158.572 70.7211 158.683 70.6628 158.79 70.6968C159.446 70.9203 160.102 71.1729 160.734 71.4547C160.836 71.4985 160.879 71.6151 160.836 71.7171C160.802 71.7948 160.729 71.8386 160.656 71.8386ZM146.493 70.5219C146.4 70.5219 146.323 70.4587 146.298 70.3664C146.274 70.2595 146.337 70.1526 146.444 70.1284C147.115 69.968 147.805 69.8368 148.494 69.7397C148.606 69.7251 148.703 69.798 148.718 69.9097C148.733 70.0166 148.66 70.1186 148.548 70.1332C147.873 70.2304 147.192 70.3567 146.536 70.5122C146.522 70.517 146.507 70.5219 146.493 70.5219ZM156.74 70.517C156.725 70.517 156.711 70.517 156.696 70.5122C156.03 70.3567 155.355 70.2304 154.685 70.1332C154.578 70.1186 154.5 70.0166 154.514 69.9097C154.529 69.8028 154.631 69.7251 154.738 69.7397C155.423 69.8368 156.113 69.9632 156.788 70.1235C156.895 70.1478 156.963 70.2547 156.939 70.3616C156.915 70.4539 156.832 70.517 156.74 70.517ZM152.649 69.9437C152.644 69.9437 152.644 69.9437 152.639 69.9437C151.959 69.9146 151.274 69.9146 150.589 69.9437C150.482 69.9535 150.385 69.866 150.38 69.7543C150.375 69.6425 150.457 69.5502 150.569 69.5453C151.264 69.5113 151.964 69.5113 152.654 69.5453C152.765 69.5502 152.848 69.6425 152.843 69.7543C152.843 69.8611 152.756 69.9437 152.649 69.9437Z" fill="white"/>
<path d="M173.717 90.3351C173.615 90.3351 173.527 90.2574 173.517 90.1505C173.493 89.8249 173.459 89.4945 173.42 89.169C173.406 89.0621 173.483 88.9601 173.595 88.9455C173.702 88.931 173.804 89.0087 173.819 89.1204C173.857 89.4508 173.892 89.7861 173.921 90.1213C173.93 90.2331 173.848 90.3254 173.736 90.3351C173.726 90.3351 173.721 90.3351 173.717 90.3351Z" fill="white"/>
<path d="M147.163 99.338C147.994 98.6432 151.148 93.3571 156.186 99.338C156.73 99.6246 158.144 98.823 157.964 98.2642C152.066 89.6597 144.715 97.7347 145.434 98.6189C146.153 99.508 146.197 100.149 147.163 99.338Z" fill="white"/>
<path d="M161.521 95.7572C162.624 95.626 163.654 94.8778 163.348 93.9158C163.042 92.9684 152.542 80.7006 140.842 94.528C140.696 94.6981 140.628 94.9167 140.648 95.1402C140.667 95.3637 140.774 95.5677 140.944 95.7086C141.479 96.1508 141.931 96.452 142.518 96.3791C153.222 84.2376 160.423 95.8835 161.521 95.7572Z" fill="white"/>
<path d="M166.987 92.089C167.77 92.2445 169.368 91.6566 168.955 90.374C150.467 70.2595 134.006 91.3408 134.608 92.1911C135.211 93.0413 136.435 93.0753 136.931 92.7887C151.648 73.9083 166.205 91.9335 166.987 92.089Z" fill="white"/>
<path d="M154.043 102.413C154.043 103.764 152.945 104.862 151.594 104.862C150.244 104.862 149.146 103.764 149.146 102.413C149.146 101.063 150.244 99.9647 151.594 99.9647C152.95 99.9647 154.043 101.058 154.043 102.413Z" fill="white"/>
<path d="M41.2104 35.0312L42.0753 42.2461L46.5891 38.5585L41.2104 35.0312Z" fill="url(#paint16_linear)"/>
<path d="M73.1567 27L55.7185 46.4294C55.3833 46.8035 54.912 47.0221 54.4164 47.0367C53.9159 47.0561 53.43 46.8666 53.0705 46.5217L34.2232 28.2827C34.0094 28.0737 33.9414 27.7531 34.0532 27.4761C34.1649 27.1992 34.437 27.0146 34.7383 27.0146L73.1567 27Z" fill="url(#paint17_linear)"/>
<path d="M41.2104 35.036L73.157 27L44.2423 37.9852L44.3978 39.9966L41.2104 35.036Z" fill="url(#paint18_linear)"/>
<path d="M46.0545 39.7245L42.0752 42.2461L44.2422 37.9852L46.0545 39.7245Z" fill="url(#paint19_linear)"/>
<path d="M125.162 45.0679L123.598 46.2243C123.384 46.3846 123.335 46.6858 123.496 46.9045C123.656 47.1182 123.957 47.1668 124.176 47.0065L125.741 45.855C125.959 45.6947 126.003 45.3935 125.843 45.1748C125.682 44.9562 125.381 44.9125 125.162 45.0679Z" fill="white"/>
<path d="M120.867 48.2551L119.312 49.4212C119.099 49.5815 119.055 49.8828 119.215 50.0965C119.376 50.3103 119.677 50.354 119.891 50.1937L121.445 49.0325C121.659 48.8722 121.703 48.571 121.548 48.3572C121.387 48.1385 121.086 48.0948 120.867 48.2551Z" fill="white"/>
<path d="M116.596 51.4715L115.051 52.6473C114.842 52.8076 114.798 53.1088 114.959 53.3226C115.119 53.5315 115.42 53.5753 115.634 53.4149L117.179 52.2392C117.393 52.0788 117.432 51.7776 117.272 51.5638C117.111 51.35 116.81 51.3063 116.596 51.4715Z" fill="white"/>
<path d="M112.35 54.7219L110.815 55.9171C110.606 56.0774 110.567 56.3787 110.732 56.5876C110.892 56.7965 111.199 56.8354 111.403 56.6702L112.938 55.4798C113.147 55.3195 113.186 55.0183 113.025 54.8093C112.865 54.5956 112.564 54.5567 112.35 54.7219Z" fill="white"/>
<path d="M108.142 58.016L106.622 59.2258C106.418 59.391 106.384 59.6873 106.544 59.8962C106.709 60.1003 107.01 60.1343 107.214 59.9691L108.735 58.7642C108.944 58.599 108.978 58.3026 108.813 58.0937C108.648 57.8897 108.351 57.8508 108.142 58.016Z" fill="white"/>
<path d="M103.964 61.3635L102.458 62.5927C102.254 62.7579 102.224 63.0592 102.39 63.2584C102.555 63.4624 102.856 63.4916 103.06 63.3264L104.566 62.0972C104.77 61.932 104.804 61.6356 104.639 61.4267C104.474 61.2275 104.173 61.1983 103.964 61.3635Z" fill="white"/>
<path d="M99.8384 64.7694L98.3516 66.0229C98.1524 66.1929 98.1281 66.4893 98.2933 66.6885C98.4634 66.8877 98.7598 66.912 98.959 66.7468L100.446 65.4981C100.645 65.3281 100.669 65.0317 100.504 64.8325C100.334 64.6285 100.038 64.5993 99.8384 64.7694Z" fill="white"/>
<path d="M95.7622 68.2384L94.2948 69.5162C94.1005 69.6862 94.0762 69.9826 94.2511 70.1769C94.4211 70.3713 94.7175 70.3907 94.9119 70.2207L96.3744 68.9477C96.5687 68.7777 96.593 68.4813 96.423 68.2821C96.2578 68.0878 95.9565 68.0683 95.7622 68.2384Z" fill="white"/>
<path d="M91.7434 71.7754L90.3004 73.0824C90.1109 73.2573 90.0915 73.5536 90.2664 73.7431C90.4413 73.9326 90.7377 73.952 90.9272 73.7771L92.3702 72.4799H92.3751C92.5694 72.305 92.584 72.0086 92.4091 71.8191C92.2342 71.6151 91.9378 71.6005 91.7434 71.7754Z" fill="white"/>
<path d="M87.7933 75.3902L86.3746 76.7263C86.1851 76.9012 86.1802 77.1975 86.3551 77.387C86.53 77.5765 86.8264 77.5814 87.0111 77.4065L88.425 76.0801H88.4298C88.6193 75.9052 88.629 75.6088 88.4492 75.4193C88.2792 75.2201 87.9828 75.2104 87.7933 75.3902Z" fill="white"/>
<path d="M83.9164 79.0827L82.5268 80.4479C82.3422 80.6277 82.3421 80.9192 82.5219 81.1038C82.7017 81.2885 82.9932 81.2885 83.1779 81.1087H83.1827L84.5675 79.7483L84.5723 79.7434C84.757 79.5637 84.757 79.2722 84.5772 79.0875C84.3974 78.9078 84.101 78.9029 83.9164 79.0827Z" fill="white"/>
<path d="M80.1262 82.8675L78.7706 84.2667C78.5957 84.4514 78.5957 84.7429 78.7803 84.9178C78.965 85.0976 79.2565 85.0927 79.4314 84.9081L79.4363 84.9032L80.787 83.5137L80.7919 83.5088C80.9716 83.3242 80.9668 83.0327 80.7822 82.8529C80.5975 82.678 80.306 82.6829 80.1262 82.8675Z" fill="white"/>
<path d="M76.4335 86.7446L75.1167 88.1779C74.9467 88.3625 74.9564 88.654 75.1459 88.8289C75.3305 88.999 75.6221 88.9893 75.797 88.7998L75.8018 88.7949L77.1137 87.3665L77.1186 87.3616C77.2886 87.177 77.2789 86.8855 77.0894 86.7106C76.8951 86.5454 76.6035 86.5551 76.4335 86.7446Z" fill="white"/>
<path d="M72.8427 90.7238L71.5649 92.1959C71.3997 92.3854 71.4191 92.6769 71.6135 92.8421C71.8029 93.0073 72.0945 92.9879 72.2597 92.7935L72.2645 92.7887L73.5327 91.3262L73.5375 91.3214C73.7027 91.1319 73.6833 90.8404 73.4938 90.6752C73.2995 90.51 73.0079 90.5294 72.8427 90.7238Z" fill="white"/>
<path d="M69.374 94.8098L68.1447 96.3257C67.9844 96.52 68.0184 96.8067 68.2127 96.967C68.4071 97.1273 68.6938 97.0933 68.8541 96.899L68.8589 96.8941L70.0834 95.388L70.0882 95.3831C70.2486 95.1888 70.2194 94.9021 70.0202 94.7418C69.821 94.5815 69.5343 94.6106 69.374 94.8098Z" fill="white"/>
<path d="M66.0454 99.0076L64.8695 100.562C64.7189 100.762 64.7578 101.048 64.957 101.199C65.1562 101.349 65.4429 101.311 65.5935 101.111L65.5984 101.106L66.7693 99.5615L66.7742 99.5566C66.9248 99.3574 66.8859 99.0708 66.6867 98.9201C66.4778 98.7695 66.196 98.8084 66.0454 99.0076Z" fill="white"/>
<path d="M62.863 103.327L61.7503 104.925C61.6094 105.129 61.658 105.411 61.8621 105.552C62.0662 105.693 62.348 105.644 62.4889 105.44L62.4937 105.435L63.6015 103.847L63.6064 103.842C63.7473 103.638 63.6987 103.356 63.4946 103.215C63.2906 103.074 63.0088 103.118 62.863 103.327Z" fill="white"/>
<path d="M59.8601 107.768L58.8154 109.415C58.6842 109.624 58.7425 109.9 58.9515 110.032C59.1604 110.163 59.4373 110.105 59.5685 109.896L59.5734 109.891L60.6132 108.258L60.618 108.253C60.7492 108.045 60.6909 107.768 60.482 107.632C60.2682 107.495 59.9912 107.554 59.8601 107.768Z" fill="white"/>
<path d="M57.047 112.335L56.0753 114.025C55.9538 114.239 56.0267 114.511 56.2405 114.633C56.4543 114.754 56.7264 114.681 56.8478 114.468L56.8527 114.463L57.8147 112.782L57.8196 112.777C57.9411 112.563 57.8682 112.291 57.6544 112.165C57.4406 112.048 57.1685 112.121 57.047 112.335Z" fill="white"/>
<path d="M54.4525 117.028L53.5682 118.767C53.4564 118.986 53.5439 119.253 53.7625 119.365C53.9812 119.477 54.2484 119.389 54.3602 119.171L54.365 119.166L55.2444 117.441L55.2493 117.431C55.3611 117.213 55.2736 116.945 55.055 116.834C54.8315 116.722 54.5642 116.809 54.4525 117.028Z" fill="white"/>
<path d="M52.1006 121.853L51.3135 123.636C51.2163 123.859 51.3135 124.121 51.537 124.219C51.7605 124.316 52.0228 124.219 52.12 123.995L52.1249 123.985L52.9071 122.217L52.912 122.207C53.0092 121.984 52.912 121.721 52.6885 121.624C52.4601 121.527 52.2026 121.629 52.1006 121.853Z" fill="white"/>
<path d="M50.0213 126.799L49.3362 128.625C49.2488 128.854 49.3654 129.106 49.5937 129.194C49.8221 129.281 50.0748 129.165 50.1622 128.936L50.1671 128.927L50.8473 127.119L50.8522 127.109C50.9396 126.881 50.823 126.628 50.5946 126.541C50.3614 126.458 50.1088 126.57 50.0213 126.799Z" fill="white"/>
<path d="M48.2382 131.866L47.6697 133.732C47.6017 133.965 47.728 134.208 47.9612 134.276C48.1945 134.344 48.4374 134.218 48.5054 133.984L48.5103 133.975L49.0739 132.128L49.0788 132.119C49.1517 131.885 49.0205 131.642 48.7872 131.57C48.554 131.502 48.3111 131.633 48.2382 131.866Z" fill="white"/>
<path d="M46.7808 137.031L46.3338 138.935C46.2803 139.168 46.4261 139.402 46.6593 139.46C46.8926 139.513 47.1258 139.368 47.1841 139.134V139.125L47.6262 137.244V137.235C47.6797 137.001 47.5339 136.763 47.3007 136.71C47.0723 136.652 46.8342 136.797 46.7808 137.031Z" fill="white"/>
<path d="M45.6678 142.292L45.3569 144.221C45.318 144.459 45.4783 144.678 45.7164 144.717C45.9545 144.756 46.1732 144.595 46.212 144.357V144.348L46.523 142.438V142.428C46.5619 142.19 46.4015 141.967 46.1634 141.928C45.9302 141.894 45.7067 142.054 45.6678 142.292Z" fill="white"/>
<path d="M44.9293 147.613L44.7544 149.561C44.735 149.799 44.9099 150.008 45.1431 150.027C45.3812 150.047 45.5901 149.872 45.6096 149.639V149.629L45.7845 147.705V147.695C45.8039 147.457 45.629 147.248 45.3958 147.224C45.1625 147.2 44.9488 147.374 44.9293 147.613Z" fill="white"/>
<path d="M44.5697 152.976L44.5357 154.93C44.5309 155.168 44.7204 155.362 44.9584 155.367C45.1965 155.372 45.3909 155.182 45.3957 154.944V154.934L45.4297 153.001V152.991C45.4346 152.753 45.2451 152.559 45.007 152.554C44.769 152.549 44.5746 152.738 44.5697 152.976Z" fill="white"/>
<path d="M44.599 158.35L44.7059 160.298C44.7204 160.531 44.9197 160.716 45.1577 160.702C45.391 160.687 45.5756 160.488 45.561 160.255V160.245L45.459 158.316V158.306C45.4444 158.068 45.2452 157.888 45.0071 157.903C44.7642 157.913 44.5844 158.112 44.599 158.35Z" fill="white"/>
<path d="M45.0121 163.704L45.2551 165.643C45.2842 165.876 45.498 166.041 45.7312 166.012C45.9645 165.983 46.1297 165.769 46.1005 165.536V165.526L45.8624 163.607V163.597C45.8333 163.364 45.6195 163.199 45.3863 163.228C45.1482 163.257 44.983 163.471 45.0121 163.704Z" fill="white"/>
<path d="M45.799 169.014L46.178 170.934C46.2218 171.162 46.4453 171.313 46.6736 171.269C46.902 171.225 47.0526 171.002 47.0089 170.773V170.764L46.6396 168.869V168.859C46.5959 168.631 46.3724 168.48 46.144 168.524C45.9059 168.563 45.7553 168.786 45.799 169.014Z" fill="white"/>
<path d="M46.9506 174.267L47.4559 176.152C47.5142 176.375 47.7474 176.511 47.9709 176.448C48.1944 176.39 48.3305 176.157 48.2673 175.933L48.2625 175.923L47.762 174.058L47.7571 174.048C47.6988 173.824 47.4656 173.688 47.2421 173.752C47.0235 173.81 46.8874 174.043 46.9506 174.267Z" fill="white"/>
<path d="M48.4616 179.421L49.103 181.268C49.1807 181.486 49.4188 181.603 49.6374 181.525C49.8561 181.448 49.9727 181.209 49.895 180.991L49.8901 180.981L49.2585 179.154L49.2536 179.145C49.1759 178.926 48.9378 178.809 48.7191 178.887C48.5005 178.965 48.3839 179.203 48.4616 179.421Z" fill="white"/>
<path d="M50.3325 184.455L51.1002 186.253C51.1925 186.466 51.4354 186.564 51.6444 186.471C51.8533 186.379 51.9553 186.136 51.863 185.927L51.8581 185.917L51.1002 184.139L51.0953 184.129C51.003 183.916 50.7601 183.819 50.5463 183.911C50.3422 183.998 50.245 184.246 50.3325 184.455Z" fill="white"/>
<path d="M52.5526 189.348L53.4417 191.087C53.5437 191.291 53.7964 191.374 54.0005 191.267C54.2045 191.165 54.2871 190.912 54.1802 190.708L54.1754 190.698L53.2959 188.978L53.2911 188.969C53.1891 188.764 52.9364 188.682 52.7323 188.789C52.5283 188.891 52.4505 189.143 52.5526 189.348Z" fill="white"/>
<path d="M55.094 194.075L56.0949 195.751C56.2115 195.945 56.4641 196.009 56.6585 195.892C56.8528 195.775 56.916 195.523 56.7994 195.328L56.7945 195.319L55.8082 193.657L55.8033 193.647C55.6867 193.453 55.4341 193.385 55.2397 193.502C55.0405 193.628 54.9774 193.881 55.094 194.075Z" fill="white"/>
<path d="M57.9363 198.627L59.0393 200.24C59.1656 200.425 59.4231 200.474 59.6078 200.347C59.7924 200.221 59.841 199.963 59.7147 199.779L59.7098 199.769L58.6214 198.171L58.6166 198.161C58.4902 197.971 58.2327 197.928 58.0481 198.054C57.8586 198.185 57.81 198.443 57.9363 198.627Z" fill="white"/>
<path d="M61.0509 203L62.2462 204.54C62.3822 204.72 62.6397 204.749 62.8195 204.613C62.9993 204.477 63.0284 204.22 62.8924 204.04L62.8875 204.035L61.702 202.504L61.6971 202.5C61.5611 202.32 61.3036 202.291 61.1238 202.427C60.944 202.563 60.9148 202.82 61.0509 203Z" fill="white"/>
<path d="M64.4128 207.183L65.6907 208.655C65.8365 208.825 66.094 208.84 66.264 208.694C66.4341 208.549 66.4487 208.291 66.3029 208.121L66.298 208.116L65.0299 206.654L65.025 206.649C64.8793 206.479 64.6218 206.459 64.4517 206.61C64.2816 206.756 64.2671 207.013 64.4128 207.183Z" fill="white"/>
<path d="M67.9989 211.172L69.3545 212.576C69.51 212.737 69.7626 212.741 69.923 212.586C70.0833 212.431 70.0882 212.178 69.9327 212.018L69.9278 212.013L68.5868 210.618L68.5819 210.613C68.4265 210.453 68.1738 210.448 68.0086 210.604C67.8483 210.754 67.8434 211.012 67.9989 211.172Z" fill="white"/>
<path d="M71.7841 214.972L73.2029 216.308C73.3632 216.458 73.6159 216.453 73.7713 216.288C73.922 216.128 73.9171 215.875 73.7519 215.72L73.747 215.715L72.338 214.389L72.3331 214.384C72.1728 214.233 71.9153 214.238 71.7647 214.403C71.614 214.568 71.6189 214.821 71.7841 214.972Z" fill="white"/>
<path d="M75.7438 218.586L77.2258 219.854C77.391 220 77.6436 219.976 77.7894 219.811C77.9303 219.645 77.9109 219.393 77.7457 219.247L77.7408 219.242L76.2686 217.984L76.2637 217.979C76.0985 217.833 75.8459 217.853 75.7001 218.023C75.5592 218.188 75.5786 218.441 75.7438 218.586Z" fill="white"/>
<path d="M79.8688 222.016L81.4042 223.217C81.5742 223.353 81.8269 223.323 81.9629 223.149C82.099 222.978 82.0698 222.726 81.8949 222.59L81.89 222.585L80.3644 221.39L80.3595 221.385C80.1846 221.249 79.9368 221.278 79.8008 221.453C79.6647 221.628 79.6939 221.88 79.8688 222.016Z" fill="white"/>
<path d="M84.1303 225.262L85.7143 226.399C85.8892 226.525 86.137 226.486 86.2633 226.307C86.3897 226.132 86.3508 225.884 86.171 225.758L86.1662 225.753L84.5919 224.621L84.587 224.616C84.4121 224.489 84.1643 224.528 84.0331 224.703C83.9117 224.888 83.9554 225.136 84.1303 225.262Z" fill="white"/>
<path d="M88.522 228.337L90.1497 229.411C90.3295 229.533 90.5724 229.479 90.6939 229.299C90.8153 229.12 90.7619 228.877 90.5821 228.755L90.5773 228.75L88.9642 227.682L88.9593 227.677C88.7795 227.555 88.5366 227.609 88.4151 227.788C88.2888 227.973 88.3374 228.216 88.522 228.337Z" fill="white"/>
<path d="M93.0262 231.243L94.6879 232.258C94.8726 232.37 95.1106 232.312 95.2224 232.127C95.3342 231.942 95.2759 231.704 95.0912 231.593H95.0864L93.4344 230.582L93.4295 230.577C93.2449 230.465 93.0068 230.524 92.8902 230.708C92.7833 230.888 92.8416 231.126 93.0262 231.243Z" fill="white"/>
<path d="M97.6324 233.978L99.3281 234.935C99.5128 235.042 99.7508 234.974 99.8577 234.79C99.9646 234.605 99.8966 234.367 99.712 234.26H99.7071L98.0162 233.308H98.0114C97.8219 233.201 97.5887 233.269 97.4818 233.453C97.3749 233.638 97.4429 233.871 97.6324 233.978Z" fill="white"/>
<path d="M102.326 236.558L104.056 237.457C104.246 237.554 104.479 237.481 104.576 237.292C104.673 237.102 104.6 236.869 104.411 236.772H104.406L102.686 235.878H102.681C102.492 235.781 102.258 235.854 102.161 236.043C102.064 236.223 102.137 236.456 102.326 236.558Z" fill="white"/>
<path d="M107.107 238.978L108.866 239.818C109.055 239.911 109.289 239.828 109.376 239.638C109.468 239.449 109.386 239.216 109.196 239.128H109.191L107.442 238.288H107.437C107.248 238.195 107.015 238.278 106.922 238.468C106.835 238.652 106.913 238.885 107.107 238.978Z" fill="white"/>
<path d="M111.961 241.242L113.744 242.029C113.939 242.111 114.162 242.029 114.25 241.835C114.337 241.64 114.25 241.417 114.055 241.329H114.05L112.277 240.547H112.272C112.078 240.46 111.854 240.547 111.767 240.741C111.679 240.931 111.767 241.154 111.961 241.242Z" fill="white"/>
<path d="M116.883 243.355L118.69 244.084C118.885 244.162 119.108 244.069 119.186 243.875C119.264 243.681 119.171 243.462 118.977 243.38H118.972L117.174 242.651H117.17C116.975 242.573 116.752 242.665 116.674 242.86C116.596 243.054 116.689 243.273 116.883 243.355Z" fill="white"/>
<path d="M121.868 245.318L123.695 245.993C123.89 246.066 124.108 245.964 124.181 245.77C124.254 245.576 124.152 245.357 123.958 245.284H123.953L122.135 244.609H122.131C121.936 244.536 121.718 244.638 121.645 244.832C121.572 245.027 121.669 245.245 121.868 245.318Z" fill="white"/>
<path d="M126.907 247.13L128.753 247.752C128.947 247.82 129.161 247.713 129.229 247.519C129.297 247.325 129.19 247.111 128.996 247.043H128.991L127.154 246.421H127.15C126.955 246.353 126.741 246.46 126.673 246.654C126.605 246.849 126.707 247.062 126.907 247.13Z" fill="white"/>
<path d="M131.999 248.792L133.859 249.36C134.059 249.419 134.263 249.312 134.326 249.113C134.384 248.913 134.272 248.709 134.078 248.646H134.073L132.217 248.078H132.212C132.013 248.019 131.804 248.126 131.746 248.326C131.688 248.525 131.799 248.734 131.999 248.792Z" fill="white"/>
<path d="M137.134 250.303L139.015 250.813C139.214 250.867 139.418 250.75 139.471 250.551C139.525 250.352 139.408 250.147 139.209 250.094H139.204L137.333 249.584H137.329C137.129 249.53 136.925 249.647 136.872 249.846C136.823 250.045 136.94 250.249 137.134 250.303Z" fill="white"/>
<path d="M142.319 251.663L144.214 252.12C144.413 252.169 144.612 252.047 144.661 251.848C144.709 251.649 144.588 251.45 144.389 251.401H144.384L142.499 250.944H142.494C142.295 250.896 142.095 251.017 142.047 251.216C141.998 251.416 142.12 251.615 142.319 251.663Z" fill="white"/>
<path d="M147.537 252.863L149.447 253.262C149.646 253.301 149.84 253.174 149.879 252.975C149.918 252.776 149.792 252.582 149.593 252.543H149.588L147.688 252.149H147.683C147.484 252.105 147.29 252.237 147.251 252.436C147.212 252.625 147.338 252.825 147.537 252.863Z" fill="white"/>
<path d="M152.794 253.898L154.713 254.233C154.913 254.268 155.102 254.136 155.136 253.937C155.17 253.738 155.039 253.548 154.84 253.514H154.835L152.925 253.179H152.921C152.721 253.145 152.532 253.276 152.498 253.476C152.459 253.675 152.595 253.864 152.794 253.898Z" fill="white"/>
<path d="M158.081 254.763L160.005 255.045C160.204 255.074 160.389 254.938 160.413 254.739C160.442 254.54 160.306 254.355 160.107 254.331H160.102L158.183 254.049H158.178C157.979 254.02 157.794 254.156 157.765 254.355C157.741 254.549 157.882 254.734 158.081 254.763Z" fill="white"/>
<path d="M163.382 255.497L165.315 255.735C165.515 255.759 165.694 255.618 165.719 255.419C165.743 255.22 165.602 255.04 165.403 255.016H165.398L163.474 254.778H163.469C163.27 254.753 163.09 254.894 163.066 255.093C163.041 255.293 163.182 255.472 163.382 255.497Z" fill="white"/>
<path d="M168.697 256.104L170.636 256.294C170.83 256.313 171.01 256.167 171.03 255.973C171.049 255.779 170.903 255.599 170.709 255.579H170.704L168.775 255.385H168.77C168.571 255.366 168.396 255.511 168.377 255.706C168.357 255.91 168.503 256.085 168.697 256.104Z" fill="white"/>
<path d="M174.032 256.595L175.975 256.741C176.17 256.755 176.34 256.609 176.354 256.41C176.369 256.216 176.223 256.046 176.024 256.026H176.019L174.085 255.881H174.081C173.886 255.866 173.711 256.012 173.697 256.211C173.687 256.405 173.833 256.58 174.032 256.595Z" fill="white"/>
<path d="M179.372 256.954L181.315 257.051C181.51 257.061 181.675 256.911 181.685 256.716C181.694 256.522 181.544 256.357 181.349 256.347H181.345L179.406 256.25H179.401C179.207 256.24 179.037 256.391 179.027 256.585C179.027 256.775 179.177 256.945 179.372 256.954Z" fill="white"/>
<path d="M184.722 257.183L186.665 257.231C186.859 257.236 187.02 257.081 187.025 256.886C187.029 256.692 186.874 256.532 186.685 256.527H186.68L184.741 256.478H184.736C184.542 256.473 184.381 256.629 184.377 256.823C184.372 257.013 184.527 257.178 184.722 257.183Z" fill="white"/>
<path d="M190.071 257.275H192.019C192.214 257.275 192.369 257.12 192.369 256.925C192.369 256.731 192.214 256.575 192.019 256.575H192.015H190.076H190.071C189.877 256.575 189.721 256.731 189.721 256.925C189.721 257.115 189.882 257.275 190.071 257.275Z" fill="white"/>
<path d="M195.425 257.226L197.373 257.173C197.563 257.168 197.718 257.008 197.709 256.818C197.704 256.629 197.544 256.473 197.354 256.478H197.349L195.411 256.527H195.406C195.211 256.532 195.061 256.692 195.066 256.881C195.075 257.081 195.236 257.231 195.425 257.226Z" fill="white"/>
<path d="M200.775 257.037L202.718 256.93C202.908 256.92 203.054 256.755 203.044 256.566C203.034 256.376 202.869 256.23 202.68 256.24H202.675L200.736 256.342H200.731C200.542 256.352 200.396 256.517 200.406 256.707C200.425 256.901 200.586 257.047 200.775 257.037Z" fill="white"/>
<path d="M206.119 256.702L208.058 256.541C208.247 256.527 208.388 256.362 208.374 256.172C208.359 255.983 208.194 255.842 208.004 255.856H208L206.066 256.012H206.061C205.872 256.026 205.731 256.192 205.745 256.381C205.76 256.57 205.93 256.716 206.119 256.702Z" fill="white"/>
<path d="M211.45 256.221L213.384 256.007C213.568 255.987 213.704 255.817 213.685 255.633C213.665 255.448 213.495 255.312 213.311 255.332H213.306L211.377 255.541H211.372C211.183 255.56 211.051 255.73 211.071 255.915C211.095 256.104 211.265 256.24 211.45 256.221Z" fill="white"/>
<path d="M216.765 255.589L218.694 255.322C218.879 255.298 219.01 255.127 218.981 254.938C218.956 254.753 218.786 254.622 218.597 254.651H218.592L216.673 254.919H216.668C216.483 254.943 216.352 255.118 216.376 255.302C216.41 255.482 216.581 255.613 216.765 255.589Z" fill="white"/>
<path d="M222.061 254.802L223.98 254.476C224.165 254.447 224.286 254.272 224.257 254.088C224.228 253.903 224.053 253.782 223.868 253.811H223.864L221.949 254.131H221.944C221.76 254.161 221.638 254.336 221.667 254.52C221.706 254.71 221.881 254.836 222.061 254.802Z" fill="white"/>
<path d="M227.333 253.864L229.242 253.485C229.422 253.451 229.539 253.272 229.505 253.092C229.471 252.912 229.291 252.795 229.111 252.829H229.106L227.202 253.204H227.197C227.017 253.238 226.896 253.417 226.935 253.597C226.978 253.782 227.153 253.903 227.333 253.864Z" fill="white"/>
<path d="M232.576 252.776L234.475 252.339C234.655 252.3 234.767 252.12 234.723 251.94C234.684 251.76 234.504 251.649 234.325 251.692H234.32L232.43 252.125H232.425C232.245 252.164 232.133 252.344 232.172 252.523C232.216 252.703 232.396 252.815 232.576 252.776Z" fill="white"/>
<path d="M237.784 251.527L239.669 251.037C239.844 250.993 239.951 250.808 239.907 250.633C239.864 250.458 239.679 250.352 239.504 250.395H239.499L237.624 250.881H237.619C237.444 250.925 237.337 251.109 237.381 251.284C237.425 251.469 237.604 251.576 237.784 251.527Z" fill="white"/>
<path d="M242.949 250.128L244.82 249.579C244.994 249.53 245.092 249.346 245.043 249.171C244.994 248.996 244.81 248.899 244.635 248.947H244.63L242.769 249.492H242.764C242.589 249.54 242.492 249.725 242.541 249.9C242.594 250.079 242.774 250.181 242.949 250.128Z" fill="white"/>
<path d="M248.075 248.573L249.926 247.971C250.096 247.917 250.189 247.733 250.135 247.563C250.082 247.393 249.897 247.3 249.727 247.354H249.722L247.876 247.951H247.871C247.701 248.005 247.604 248.189 247.662 248.364C247.715 248.539 247.9 248.632 248.075 248.573Z" fill="white"/>
<path d="M253.148 246.868L254.98 246.212C255.15 246.154 255.237 245.964 255.174 245.799C255.116 245.629 254.926 245.542 254.761 245.605H254.756L252.929 246.261H252.924C252.754 246.319 252.667 246.508 252.73 246.674C252.793 246.844 252.978 246.931 253.148 246.868Z" fill="white"/>
<path d="M258.171 245.012L259.984 244.303C260.149 244.239 260.232 244.05 260.164 243.885C260.1 243.72 259.911 243.637 259.746 243.705H259.741L257.933 244.414H257.929C257.763 244.478 257.681 244.667 257.744 244.832C257.817 244.997 258.006 245.08 258.171 245.012Z" fill="white"/>
<path d="M263.137 243.025L264.935 242.281C265.1 242.213 265.173 242.029 265.11 241.864C265.042 241.703 264.857 241.626 264.692 241.689L262.899 242.427C262.734 242.495 262.656 242.68 262.724 242.845C262.787 243.015 262.972 243.093 263.137 243.025Z" fill="white"/>
<path d="M268.069 240.97L269.857 240.207C270.017 240.139 270.095 239.954 270.022 239.789C269.954 239.629 269.765 239.556 269.604 239.624L267.816 240.387C267.656 240.455 267.578 240.639 267.646 240.804C267.724 240.96 267.909 241.038 268.069 240.97Z" fill="white"/>
<path d="M272.981 238.851L274.765 238.069C274.925 238.001 274.998 237.812 274.925 237.656C274.857 237.496 274.667 237.423 274.512 237.496L272.734 238.273C272.573 238.341 272.5 238.531 272.568 238.686C272.636 238.846 272.821 238.924 272.981 238.851Z" fill="white"/>
<path d="M277.874 236.694L279.648 235.902C279.803 235.834 279.876 235.645 279.808 235.489C279.74 235.334 279.551 235.261 279.395 235.334L277.622 236.126C277.461 236.194 277.393 236.383 277.461 236.539C277.529 236.694 277.714 236.762 277.874 236.694Z" fill="white"/>
<path d="M282.752 234.508L284.526 233.706C284.681 233.633 284.749 233.454 284.681 233.293C284.608 233.138 284.429 233.07 284.268 233.138L282.495 233.934C282.339 234.003 282.267 234.187 282.339 234.347C282.412 234.508 282.597 234.576 282.752 234.508Z" fill="white"/>
<path d="M287.625 232.307L289.399 231.505C289.554 231.437 289.622 231.253 289.554 231.097C289.486 230.942 289.302 230.874 289.146 230.942L287.373 231.743C287.217 231.811 287.149 231.996 287.217 232.151C287.285 232.307 287.47 232.375 287.625 232.307Z" fill="white"/>
<path d="M292.499 230.106L294.272 229.309C294.428 229.241 294.496 229.056 294.428 228.906C294.36 228.75 294.175 228.682 294.025 228.75L292.251 229.547C292.096 229.615 292.028 229.8 292.096 229.955C292.164 230.106 292.343 230.174 292.499 230.106Z" fill="white"/>
<path d="M297.377 227.915L299.156 227.123C299.311 227.055 299.379 226.875 299.311 226.72C299.243 226.564 299.063 226.496 298.908 226.564L297.13 227.351C296.974 227.419 296.906 227.599 296.974 227.754C297.042 227.915 297.222 227.988 297.377 227.915Z" fill="white"/>
<path d="M302.265 225.758L304.048 224.98C304.204 224.912 304.272 224.737 304.204 224.582C304.136 224.431 303.961 224.358 303.805 224.426L302.022 225.204C301.867 225.272 301.799 225.447 301.867 225.602C301.935 225.753 302.11 225.821 302.265 225.758Z" fill="white"/>
<path d="M307.173 223.634L308.961 222.876C309.111 222.813 309.184 222.638 309.121 222.483C309.058 222.332 308.883 222.259 308.727 222.323L306.935 223.08C306.784 223.144 306.711 223.323 306.774 223.474C306.842 223.629 307.017 223.702 307.173 223.634Z" fill="white"/>
<path d="M312.094 221.574L313.892 220.841C314.043 220.778 314.12 220.607 314.057 220.452C313.994 220.301 313.819 220.229 313.669 220.287L311.866 221.02C311.715 221.084 311.638 221.259 311.701 221.409C311.769 221.565 311.944 221.637 312.094 221.574Z" fill="white"/>
<path d="M317.046 219.577L318.853 218.873C319.004 218.815 319.082 218.645 319.023 218.489C318.965 218.339 318.795 218.261 318.64 218.319L316.827 219.024C316.677 219.082 316.599 219.257 316.657 219.407C316.72 219.563 316.895 219.641 317.046 219.577Z" fill="white"/>
<path d="M322.031 217.668L323.853 216.998C324.003 216.944 324.086 216.774 324.028 216.623C323.974 216.473 323.804 216.395 323.649 216.449L321.822 217.119C321.671 217.177 321.593 217.343 321.647 217.498C321.71 217.649 321.875 217.726 322.031 217.668Z" fill="white"/>
<path d="M327.05 215.861L328.882 215.229C329.032 215.176 329.115 215.01 329.062 214.86C329.008 214.709 328.843 214.627 328.692 214.68L326.856 215.312C326.705 215.365 326.623 215.53 326.676 215.681C326.729 215.832 326.895 215.914 327.05 215.861Z" fill="white"/>
<path d="M332.108 214.16L333.959 213.572H333.964C334.115 213.524 334.202 213.363 334.153 213.208C334.105 213.057 333.944 212.97 333.789 213.018L331.933 213.606C331.782 213.655 331.695 213.815 331.743 213.971C331.792 214.126 331.952 214.209 332.108 214.16Z" fill="white"/>
<path d="M337.21 212.591L339.076 212.061H339.08C339.231 212.018 339.323 211.857 339.28 211.707C339.236 211.556 339.076 211.464 338.925 211.507L337.049 212.042C336.899 212.086 336.807 212.246 336.85 212.397C336.889 212.547 337.049 212.635 337.21 212.591Z" fill="white"/>
<path d="M342.355 211.201L344.24 210.749H344.245C344.396 210.711 344.493 210.56 344.454 210.405C344.415 210.249 344.264 210.157 344.109 210.196L342.214 210.647C342.059 210.686 341.966 210.837 342 210.992C342.044 211.143 342.199 211.24 342.355 211.201Z" fill="white"/>
<path d="M347.559 210.03L349.463 209.661H349.468C349.624 209.632 349.721 209.481 349.692 209.331C349.663 209.18 349.512 209.078 349.361 209.107L347.447 209.477C347.291 209.506 347.194 209.656 347.223 209.807C347.253 209.962 347.398 210.06 347.559 210.03Z" fill="white"/>
<path d="M352.806 209.088L354.726 208.801H354.731C354.886 208.777 354.988 208.636 354.969 208.481C354.944 208.33 354.803 208.223 354.653 208.242L352.724 208.529C352.568 208.553 352.466 208.694 352.486 208.85C352.505 209.005 352.646 209.112 352.806 209.088Z" fill="white"/>
<path d="M284.04 254.914C284.04 248.564 278.89 243.414 272.54 243.414H267.355C261.005 243.414 255.854 248.564 255.854 254.914V285.848C255.854 292.198 261.005 297.348 267.355 297.348H272.54C278.89 297.348 284.04 292.198 284.04 285.848V254.914Z" fill="url(#paint20_linear)"/>
<path d="M441.951 254.914C441.951 248.564 436.801 243.414 430.45 243.414H425.266C418.915 243.414 413.765 248.564 413.765 254.914V285.848C413.765 292.198 418.915 297.348 425.266 297.348H430.45C436.801 297.348 441.951 292.198 441.951 285.848V254.914Z" fill="url(#paint21_linear)"/>
<path d="M270.659 197.481C270.314 197.403 269.95 197.097 269.95 196.747V194.386C269.95 192.107 268.789 190.028 266.758 189.003C264.134 187.681 261.112 187.632 258.449 188.876L253.459 191.165C251.127 192.253 249.543 194.595 249.543 197.175V198.977C249.543 202.296 252.113 205.099 255.403 205.546L275.601 208.286L278.059 199.113L270.659 197.481Z" fill="url(#paint22_linear)"/>
<path d="M427.481 197.481C427.826 197.403 427.86 197.097 427.86 196.747V194.386C427.86 192.107 429.357 190.028 431.388 189.003C434.012 187.681 437.204 187.632 439.862 188.876L444.599 191.165C446.931 192.253 448.262 194.595 448.262 197.175V198.977C448.262 202.296 446.023 205.099 442.738 205.546L422.71 208.286L420.169 199.113L427.481 197.481Z" fill="url(#paint23_linear)"/>
<path d="M442.408 217.76C439.492 207.922 424.43 198.958 424.43 198.958C424.43 198.958 411.797 160.337 398.193 160.337C387.27 160.337 361.038 160.337 351.121 160.337C351.121 160.337 349.668 160.337 347.234 160.337C337.307 160.337 311.031 160.337 300.104 160.337C286.499 160.337 273.866 198.958 273.866 198.958C273.866 198.958 258.804 207.99 255.889 217.828C253.756 225.024 258.376 252.757 261.019 267.036C261.952 272.069 266.699 275.971 272.248 275.971H347.239H351.126H426.053C431.602 275.971 436.349 272.035 437.282 267.002C439.915 252.723 444.536 224.951 442.408 217.76Z" fill="url(#paint24_linear)"/>
<path d="M440.513 259.359C439.667 258.388 438.37 257.989 437.005 257.989H261.292C259.931 257.989 258.644 258.383 257.798 259.34C256.948 260.302 256.632 261.473 256.933 262.668L259.81 274.188C260.271 276.024 262.084 277.423 264.168 277.423H433.987C436.057 277.423 437.855 276.005 438.336 274.188L441.353 262.78C441.669 261.58 441.363 260.326 440.513 259.359Z" fill="url(#paint25_linear)"/>
<path d="M301.687 241.363C301.687 241.363 297.314 228.245 291.809 227.113C286.304 225.981 262.982 221.122 262.496 225.17C262.011 229.217 257.312 243.146 271.242 244.444C285.167 245.736 303.932 246.8 301.687 241.363Z" fill="url(#paint26_linear)"/>
<path d="M396.604 241.363C396.604 241.363 400.977 228.245 406.482 227.113C411.987 225.981 435.309 221.122 435.795 225.17C436.281 229.217 440.979 243.146 427.049 244.444C413.124 245.736 394.359 246.8 396.604 241.363Z" fill="url(#paint27_linear)"/>
<path d="M393.465 230.305C393.013 229.61 392.236 229.324 391.405 229.324H306.886C306.026 229.324 305.23 229.64 304.783 230.378C304.34 231.117 304.316 231.962 304.719 232.725L309.476 241.791C311.24 245.119 314.699 247.3 318.465 247.3H380.565C384.583 247.3 388.222 244.803 389.86 241.135L393.65 232.642C393.985 231.884 393.917 231.005 393.465 230.305Z" fill="url(#paint28_linear)"/>
<path opacity="0.5" d="M344.82 238.36C344.82 239.567 344.477 240.477 343.79 241.09C343.11 241.697 342.153 242 340.92 242H338.9V234.86H341.14C341.887 234.86 342.533 234.993 343.08 235.26C343.633 235.527 344.06 235.92 344.36 236.44C344.667 236.953 344.82 237.593 344.82 238.36ZM343.25 238.4C343.25 237.607 343.077 237.027 342.73 236.66C342.383 236.287 341.88 236.1 341.22 236.1H340.41V240.75H341.06C342.52 240.75 343.25 239.967 343.25 238.4ZM347.302 241.99C347.242 242.003 347.162 242.02 347.062 242.04C346.962 242.06 346.849 242.07 346.722 242.07C346.489 242.07 346.316 242.027 346.202 241.94C346.089 241.853 346.032 241.7 346.032 241.48V238.31C346.032 238.137 346.072 237.99 346.152 237.87C346.232 237.75 346.349 237.643 346.502 237.55C346.709 237.423 346.962 237.32 347.262 237.24C347.569 237.16 347.899 237.12 348.252 237.12C348.886 237.12 349.202 237.317 349.202 237.71C349.202 237.803 349.186 237.893 349.152 237.98C349.126 238.06 349.096 238.127 349.062 238.18C348.909 238.147 348.719 238.13 348.492 238.13C348.259 238.13 348.039 238.157 347.832 238.21C347.626 238.263 347.449 238.33 347.302 238.41V241.99ZM350.057 237.3C350.11 237.287 350.187 237.27 350.287 237.25C350.394 237.23 350.507 237.22 350.627 237.22C350.867 237.22 351.04 237.263 351.147 237.35C351.26 237.437 351.317 237.59 351.317 237.81V241.99C351.264 242.003 351.184 242.02 351.077 242.04C350.977 242.06 350.867 242.07 350.747 242.07C350.507 242.07 350.33 242.027 350.217 241.94C350.11 241.853 350.057 241.7 350.057 241.48V237.3ZM349.957 235.85C349.957 235.657 350.024 235.493 350.157 235.36C350.297 235.22 350.474 235.15 350.687 235.15C350.9 235.15 351.074 235.22 351.207 235.36C351.34 235.493 351.407 235.657 351.407 235.85C351.407 236.05 351.34 236.22 351.207 236.36C351.074 236.493 350.9 236.56 350.687 236.56C350.474 236.56 350.297 236.493 350.157 236.36C350.024 236.22 349.957 236.05 349.957 235.85ZM353.894 240.53C353.894 240.743 353.957 240.897 354.084 240.99C354.217 241.083 354.401 241.13 354.634 241.13C354.747 241.13 354.861 241.117 354.974 241.09C355.094 241.063 355.201 241.03 355.294 240.99C355.347 241.043 355.391 241.11 355.424 241.19C355.464 241.263 355.484 241.35 355.484 241.45C355.484 241.65 355.394 241.817 355.214 241.95C355.034 242.077 354.744 242.14 354.344 242.14C353.817 242.14 353.401 242.023 353.094 241.79C352.794 241.55 352.644 241.157 352.644 240.61V236.02C352.697 236.007 352.774 235.99 352.874 235.97C352.981 235.95 353.094 235.94 353.214 235.94C353.447 235.94 353.617 235.983 353.724 236.07C353.837 236.157 353.894 236.31 353.894 236.53V237.36H355.364C355.397 237.413 355.427 237.483 355.454 237.57C355.481 237.657 355.494 237.75 355.494 237.85C355.494 238.023 355.454 238.15 355.374 238.23C355.294 238.31 355.187 238.35 355.054 238.35H353.894V240.53ZM356.522 237.3C356.575 237.287 356.652 237.27 356.752 237.25C356.858 237.23 356.972 237.22 357.092 237.22C357.332 237.22 357.505 237.263 357.612 237.35C357.725 237.437 357.782 237.59 357.782 237.81V241.99C357.728 242.003 357.648 242.02 357.542 242.04C357.442 242.06 357.332 242.07 357.212 242.07C356.972 242.07 356.795 242.027 356.682 241.94C356.575 241.853 356.522 241.7 356.522 241.48V237.3ZM356.422 235.85C356.422 235.657 356.488 235.493 356.622 235.36C356.762 235.22 356.938 235.15 357.152 235.15C357.365 235.15 357.538 235.22 357.672 235.36C357.805 235.493 357.872 235.657 357.872 235.85C357.872 236.05 357.805 236.22 357.672 236.36C357.538 236.493 357.365 236.56 357.152 236.56C356.938 236.56 356.762 236.493 356.622 236.36C356.488 236.22 356.422 236.05 356.422 235.85ZM360.359 239.21L358.599 236.54H360.289L361.349 238.28L362.419 236.54H364.109L362.329 239.21L364.189 242H362.499L361.349 240.13L360.199 242H358.509L360.359 239.21Z" fill="white"/>
<path d="M416.476 202.096C415.927 202.932 414.994 203.573 413.989 203.573H284.298C283.282 203.573 282.335 202.918 281.791 202.058C281.247 201.198 281.179 200.051 281.616 199.128C284.56 192.923 290.085 181.404 293.18 174.976C293.321 174.684 293.476 174.524 293.651 174.257C295.148 171.881 297.776 170.53 300.628 170.53H398.703C401.584 170.53 404.222 171.891 405.714 174.286C405.923 174.626 406.112 174.913 406.273 175.282L416.709 199.244C417.113 200.168 417.025 201.256 416.476 202.096Z" fill="url(#paint29_linear)"/>
<path d="M405.714 174.291C398.844 175.646 378.655 178.955 348.205 178.955C317.503 178.955 299.486 175.612 293.651 174.276C295.147 171.9 297.776 170.535 300.628 170.535H398.703C401.584 170.535 404.222 171.896 405.714 174.291Z" fill="url(#paint30_linear)"/>
<path d="M299.598 223.518C299.477 223.518 299.36 223.474 299.263 223.387L282.451 207.48C282.257 207.295 282.247 206.989 282.432 206.795C282.617 206.6 282.923 206.591 283.117 206.775L299.928 222.682C300.123 222.867 300.132 223.173 299.948 223.367C299.856 223.464 299.729 223.518 299.598 223.518Z" fill="white"/>
<path d="M397.459 223.518C397.328 223.518 397.201 223.469 397.104 223.367C396.92 223.173 396.929 222.867 397.124 222.682L413.935 206.775C414.129 206.591 414.436 206.6 414.62 206.795C414.805 206.989 414.795 207.295 414.601 207.48L397.789 223.387C397.697 223.474 397.576 223.518 397.459 223.518Z" fill="white"/>
<path d="M347.804 30.3164C332.874 31.2258 325.559 42.7119 324.538 57.9496C323.517 73.0321 339.468 95.0253 347.347 104.886C349.545 107.662 353.681 107.662 355.9 104.93C363.541 95.491 378.688 74.9206 378.688 60.2152C378.688 44.9553 366.347 29.1852 347.804 30.3164ZM349.694 75.567C341.076 75.2121 334.656 68.9478 334.656 60.1518C334.656 51.3558 338.291 45.0471 350.675 42.8925C361.274 41.0484 366.347 50.89 367.021 59.6638C367.825 70.3008 361.513 76.0771 349.694 75.567Z" fill="url(#paint31_linear)"/>
<path d="M347.571 107.237C347.559 107.237 347.546 107.237 347.534 107.237C345.798 107.224 344.175 106.429 343.085 105.054C339.002 99.9429 333.125 92.0563 328.32 83.5074C322.495 73.1525 319.773 64.5498 320.22 57.9338C320.751 50.025 322.989 43.3393 326.693 38.5991C330.778 33.3709 336.509 30.497 343.724 30.0565C351.852 29.5591 359.52 32.3569 365.32 37.9305C371.305 43.6846 374.879 52.0149 374.879 60.2152C374.879 74.6988 360.564 94.5531 352.032 105.095C350.927 106.458 349.303 107.237 347.571 107.237ZM343.755 30.5762C336.689 31.0071 331.083 33.8145 327.09 38.9223C323.452 43.5769 321.25 50.1644 320.726 57.9686C319.695 73.1715 336.295 95.7318 343.479 104.724C344.473 105.982 345.953 106.708 347.537 106.717C347.549 106.717 347.559 106.717 347.571 106.717C349.151 106.717 350.632 106.008 351.641 104.769C355.54 99.9492 361.178 92.5031 365.876 84.4168C371.51 74.7178 374.37 66.5745 374.37 60.2152C374.37 52.1543 370.855 43.9666 364.972 38.3076C359.278 32.8354 351.744 30.0882 343.755 30.5762ZM347.025 75.8553C346.565 75.8553 346.099 75.8458 345.624 75.8236C341.356 75.6462 337.478 74.008 334.706 71.207C331.893 68.3648 330.344 64.4389 330.344 60.1486C330.344 49.987 335.348 44.5877 346.574 42.6327C350.409 41.9641 353.761 42.7499 356.543 44.9584C360.241 47.8989 362.734 53.3869 363.215 59.6385C363.594 64.6448 362.442 68.6056 359.791 71.4066C357.024 74.3312 352.628 75.8553 347.025 75.8553ZM349.136 42.9242C348.335 42.9242 347.506 42.9971 346.655 43.146C340.787 44.1663 336.696 46.1466 334.153 49.198C331.93 51.8659 330.85 55.4464 330.85 60.1518C330.85 64.2995 332.346 68.0986 335.063 70.8426C337.745 73.5517 341.505 75.1392 345.646 75.3103C351.771 75.5733 356.537 74.1031 359.424 71.0517C361.97 68.3616 363.075 64.5371 362.709 59.6828C362.24 53.5738 359.818 48.2252 356.233 45.3735C354.181 43.7417 351.802 42.9242 349.136 42.9242Z" fill="#33353B"/>
<path d="M161.06 126.755C160.786 126.758 160.512 126.737 160.239 126.695C158.88 126.479 157.685 125.712 156.877 124.531C145.125 107.374 145.316 106.218 145.43 105.528C145.477 105.242 145.622 104.997 145.837 104.839L146.363 104.45C146.739 104.176 147.41 103.57 147.819 104.124C148.635 105.233 147.506 105.73 147.133 106.004C147.515 107.065 149.477 110.752 158.205 123.497C158.754 124.302 159.569 124.824 160.493 124.97C161.41 125.116 162.326 124.87 163.075 124.284C169.022 119.608 184.838 107.376 203.212 94.8426C221.784 82.176 232.819 82.127 242.551 82.0831C243.65 82.0777 244.785 82.0745 245.892 82.0504C250.07 81.962 255.323 81.9995 260.4 82.0364C267.402 82.0872 275.312 82.143 276.792 81.7564C277.152 81.0124 277.204 77.6795 277.246 75.2224C277.358 68.3855 277.495 59.8741 281.452 58.5041C284.204 57.5521 289.757 57.164 295.271 57.54C299.826 57.8502 305.448 58.7403 306.357 61.2205C306.855 62.5762 306.438 66.4957 305.592 73.8836C304.557 82.94 302.99 96.6248 305.161 99.3967C305.39 99.6903 305.591 99.7385 305.739 99.7474C306.402 99.7874 307.198 99.8444 308.1 99.9109C315.068 100.408 329.568 101.446 335.939 98.7117C336.36 98.5304 336.838 98.7462 337.005 99.1927C337.171 99.6393 336.964 100.149 336.543 100.33C329.821 103.216 315.612 102.198 307.976 101.653C307.079 101.589 306.288 101.532 305.63 101.492C304.96 101.45 304.362 101.115 303.898 100.523C301.47 97.423 302.442 86.9976 303.964 73.6898C304.545 68.6228 305.201 62.8793 304.83 61.8692C304.481 60.9176 301.305 59.704 295.155 59.285C289.911 58.927 284.481 59.2896 281.95 60.1669C279.12 61.1466 278.982 69.626 278.89 75.2398C278.803 80.6639 278.715 82.8838 277.454 83.3665C276.127 83.8713 270.101 83.854 260.379 83.7856C255.312 83.7485 250.069 83.711 245.914 83.799C244.794 83.8234 243.652 83.8293 242.547 83.8321C232.575 83.8762 222.26 83.9218 204.095 96.3138C185.761 108.817 169.982 121.023 164.048 125.688C163.165 126.374 162.129 126.742 161.06 126.755Z" fill="#F9698C"/>
<path d="M108.803 295.279C108.803 295.181 108.798 295.084 108.774 294.987C107.326 289.249 100.14 285.673 100.14 285.673L97.2924 285.897C95.655 290.954 95.8639 294.059 96.1263 295.439C96.1311 295.478 96.1457 295.517 96.1554 295.551C98.5071 295.764 103.342 295.9 108.803 295.279Z" fill="url(#paint32_linear)"/>
<path d="M96.1606 295.556C96.287 296.017 96.6271 296.377 97.0644 296.469C100.407 297.173 105.718 296.605 107.948 296.313C108.439 296.25 108.798 295.794 108.808 295.279C103.342 295.9 98.5074 295.764 96.1606 295.556Z" fill="url(#paint33_linear)"/>
<path d="M96.146 281.655L97.351 287.461C97.4384 287.889 97.764 288.205 98.1624 288.243C98.6483 288.287 99.3382 288.316 100.033 288.214C100.655 288.122 101.087 287.49 100.98 286.81L100.14 281.655H96.146V281.655Z" fill="url(#paint34_linear)"/>
<path d="M121.14 295.478C117.996 295.39 116.368 295.021 115.528 294.676C115.528 294.987 115.528 295.308 115.538 295.638C115.547 295.988 115.81 296.27 116.13 296.27L133.398 296.158C133.947 296.153 134.273 295.517 134.035 295.011C131.766 295.196 125.999 295.619 121.14 295.478Z" fill="url(#paint35_linear)"/>
<path d="M134.03 295.011C134.011 294.968 133.991 294.924 133.962 294.88C132.436 292.747 128.554 288.506 120.877 286.664L117.194 286.548C117.194 286.548 115.557 289.395 115.523 294.676C116.364 295.021 117.991 295.39 121.135 295.478C125.999 295.619 131.766 295.196 134.03 295.011Z" fill="url(#paint36_linear)"/>
<path d="M116.349 281.14C116.407 281.412 117.175 285.542 117.471 287.145C117.544 287.524 117.84 287.806 118.19 287.826C118.822 287.86 119.837 287.864 120.712 287.626C121.183 287.5 121.499 287.019 121.465 286.485L121.052 279.95L116.349 281.14Z" fill="url(#paint37_linear)"/>
<path d="M113.56 204.866C113.56 204.866 118.623 239.668 122.281 281.082C122.349 281.854 121.732 282.525 120.979 282.685C119.862 282.918 118.219 283.2 116.864 283.161C116.14 283.142 115.533 282.603 115.411 281.888C114.167 274.586 105.28 235.397 102.948 226.773C102.948 226.773 100.271 263.411 101.126 282.418C101.146 282.889 100.801 283.302 100.329 283.356C99.6151 283.438 98.4782 283.501 97.0254 283.346C96.4763 283.288 96.0293 282.87 95.9516 282.321C95.0624 276.141 89.9607 239.357 90.1745 212.858C90.1891 211.362 91.9285 199.084 91.9285 199.084L113.56 204.866Z" fill="url(#paint38_linear)"/>
<path d="M156.973 171.59C156.973 171.59 155.554 167.858 153.897 168.198C152.241 168.538 150.428 169.811 150.428 169.811L147.766 173.411C147.766 173.411 155.234 176.356 157.862 174.67C157.862 174.67 165.49 175.987 175.125 174.407C173.731 171.463 172.9 168.514 172.409 166.226C167.536 168.99 162.279 171.05 156.973 171.59Z" fill="url(#paint39_linear)"/>
<path d="M197.383 144.518C197.383 144.518 186.461 158.272 172.414 166.226C172.9 168.514 173.736 171.463 175.13 174.407C182.418 173.212 190.848 170.36 198 164.02L197.383 144.518Z" fill="url(#paint40_linear)"/>
<path d="M115.522 146.34L116.203 164.549C118.127 165.21 119.963 165.73 121.708 166.114C122.801 162.596 125.206 158.282 127.174 155.075C119.934 152.515 115.522 146.34 115.522 146.34Z" fill="url(#paint41_linear)"/>
<path d="M151.647 146.029C141.721 156.747 133.689 157.373 127.174 155.07C125.206 158.277 122.801 162.596 121.708 166.109C148.212 171.954 154.456 147.588 154.456 147.588L151.647 146.029Z" fill="url(#paint42_linear)"/>
<path d="M91.1605 206.872C90.6406 206.688 90.2762 206.216 90.2179 205.667C89.5425 199.133 86.2823 158.617 106.874 141.952C106.874 141.952 108.054 138.862 117.757 146.456C127.46 154.05 122.266 162.008 119.944 172.989C117.131 186.272 112.199 197.131 114.381 205.308C114.531 205.871 114.235 206.464 113.686 206.668C106.15 209.438 98.643 209.53 91.1605 206.872Z" fill="url(#paint43_linear)"/>
<path d="M114.905 129.811C114.9 130.389 106.679 142.064 106.679 142.064C106.679 142.064 108.156 144.97 115.202 147.331L121.285 134.83L114.905 129.811Z" fill="url(#paint44_linear)"/>
<path d="M111.674 169.899C111.674 169.899 127.271 182.963 144.116 177.259C145.161 176.905 146.303 176.983 147.28 177.498L152.124 180.053C154.155 181.127 156.672 180.422 157.852 178.45C158.523 177.323 159.101 176.04 159.213 174.806L149.738 170.973L150.438 169.811C150.438 169.811 145.812 169.418 144.602 172.736C144.602 172.736 135.793 176.4 120.93 160.055C120.925 160.06 114.181 165.793 111.674 169.899Z" fill="url(#paint45_linear)"/>
<path d="M110.834 169.763C110.78 169.763 110.732 169.748 110.683 169.719C104.114 165.283 101.024 158.122 100.995 158.049C100.937 157.913 101 157.757 101.136 157.699C101.272 157.641 101.427 157.704 101.486 157.84C101.515 157.908 104.547 164.928 110.98 169.277C111.101 169.359 111.135 169.525 111.053 169.646C111.004 169.724 110.921 169.763 110.834 169.763Z" fill="url(#paint46_linear)"/>
<path d="M120.614 159.837C120.527 159.837 120.439 159.793 120.391 159.715C120.371 159.686 118.365 156.562 114.541 149.716C113.365 147.613 111.82 146.281 109.949 145.757C106.849 144.892 103.866 146.553 103.837 146.568C103.711 146.641 103.545 146.597 103.473 146.466C103.4 146.34 103.443 146.174 103.575 146.102C103.706 146.029 106.777 144.309 110.09 145.237C112.107 145.8 113.759 147.219 115.007 149.449C118.822 156.275 120.818 159.385 120.838 159.419C120.916 159.54 120.882 159.706 120.76 159.788C120.716 159.827 120.663 159.837 120.614 159.837Z" fill="url(#paint47_linear)"/>
<path d="M121.377 123.121C121.377 123.121 124.302 129.84 124.501 133.367C124.696 136.895 125.458 139.183 121.377 139.892C117.301 140.602 113.865 138.571 112.005 135.058C112.005 135.058 109.089 129.646 109.74 127.43C110.396 125.21 121.377 123.121 121.377 123.121Z" fill="url(#paint48_linear)"/>
<path d="M113.399 132.532L113.632 132.43C113.929 132.298 114.055 131.949 113.904 131.662C113.331 130.549 112.209 128.003 113.657 127.411C115.522 126.643 122.917 125.137 124.511 122.513C126.047 119.992 124.686 116.736 122.645 115.813C122.509 115.75 122.349 115.799 122.276 115.935L122.106 116.255C121.989 116.474 121.664 116.44 121.596 116.202C121.528 115.974 121.222 115.93 121.095 116.129C120.605 116.916 119.283 118.184 115.741 118.84C110.712 119.768 107.384 121.804 107.301 125.283C107.296 125.501 107.063 125.628 106.874 125.511C106.505 125.283 105.907 125.181 105.115 125.846C103.735 127.007 104.299 130.02 107.326 132.502C107.471 132.619 107.467 132.843 107.311 132.945C106.762 133.304 105.946 134.154 108.064 135.286C110.26 136.457 111.898 136.365 112.529 136.258C112.685 136.234 112.787 136.078 112.753 135.923L112.078 132.867C112.039 132.692 112.17 132.532 112.35 132.532H113.399V132.532Z" fill="url(#paint49_linear)"/>
<path d="M113.525 133.173C113.525 133.173 112.408 128.883 110.484 130.083C108.56 131.288 111.484 134.893 113.03 135.053L113.525 133.173Z" fill="url(#paint50_linear)"/>
<path d="M147.274 177.502C147.274 177.502 151.239 181.38 152.002 180.816C152.274 180.617 152.959 179.888 153.625 179.072C154.096 178.498 154.145 177.687 153.741 177.065L152.809 175.622C151.919 174.247 150.01 173.961 148.776 175.034C148.154 175.578 147.59 176.365 147.274 177.502Z" fill="url(#paint51_linear)"/>
<path d="M211.007 205.493C208.869 195.348 206.736 189.474 199.584 170.244C197.335 164.19 195.289 158.068 196.275 151.689L197.383 144.523C197.383 144.523 211.284 139.819 226.691 144.323C226.691 144.323 247.711 153.453 233.435 198.555C226.998 205.75 219.466 207.805 211.007 205.493Z" fill="url(#paint52_linear)"/>
<path d="M199.75 135.374L203.355 144.032C203.583 144.581 204.074 144.969 204.657 145.067C206.736 145.421 211.76 145.98 215.06 143.808C215.453 143.551 215.555 143.016 215.283 142.628L208.627 133.066L199.75 135.374Z" fill="url(#paint53_linear)"/>
<path d="M203.476 122.125C203.326 122.265 197.087 134.514 197.087 134.514L204.156 137.925L211.794 127.197C211.794 127.197 206.012 119.739 203.476 122.125Z" fill="url(#paint54_linear)"/>
<path d="M208.583 128.484L205.056 134.363C205.002 134.451 204.939 134.533 204.861 134.606C204.443 134.995 203.005 136.132 201.897 134.587C200.95 133.27 200.066 132.07 199.113 131.574C198.559 131.288 197.874 131.516 197.593 132.075C197.009 133.226 195.887 135.573 195.178 137.798C195.003 138.357 195.289 138.955 195.829 139.173C197.262 139.751 200.09 140.801 202.602 141.151C203.015 141.209 203.423 141.034 203.666 140.699C204.745 139.217 207.791 135.082 208.831 134.047C209.798 133.085 211.576 133.45 212.383 133.678C212.689 133.766 213.014 133.722 213.282 133.562C214.098 133.071 215.517 131.851 214.219 129.782C213.894 129.267 214.059 128.582 214.569 128.251C215.478 127.654 216.464 126.531 215.526 124.714C214.574 122.873 212.873 122.708 211.717 122.849C211.207 122.912 210.687 122.644 210.488 122.163C210.4 121.95 210.225 121.77 209.905 121.707C209.297 121.585 208.899 121.027 209.02 120.419C209.224 119.38 209.069 118.024 207.407 117.111C204.356 115.434 201.684 118.165 201.008 120.473C200.328 122.78 203.739 124.408 205.886 124.68C207.461 124.879 208.326 126.599 208.675 127.498C208.792 127.824 208.763 128.188 208.583 128.484Z" fill="url(#paint55_linear)"/>
<path d="M207.509 136.205C207.509 136.205 208.865 132.235 210.599 132.381C212.334 132.527 213.704 134.256 211.552 136.2C208.875 138.619 207.509 136.205 207.509 136.205Z" fill="url(#paint56_linear)"/>
<path d="M209.637 294.909C212.994 295.201 218.82 295.672 223.412 295.871C226.171 295.993 227.76 295.721 228.678 295.356C228.678 295.458 228.674 295.555 228.669 295.648C228.649 296.129 228.256 296.517 227.765 296.547C219.087 297.032 212.183 296.712 209.724 296.566C209.214 296.537 208.913 295.983 209.175 295.551C209.311 295.332 209.467 295.118 209.637 294.909Z" fill="url(#paint57_linear)"/>
<path d="M223.416 295.871C218.825 295.667 212.994 295.196 209.642 294.909C212.941 290.862 223.416 288.132 223.416 288.132H226.375C228.411 291.066 228.703 293.86 228.683 295.356C227.765 295.726 226.176 295.993 223.416 295.871Z" fill="url(#paint58_linear)"/>
<path d="M226.871 283.302L226.594 288.783C226.565 289.375 226.118 289.876 225.525 289.958C224.932 290.041 224.141 290.056 223.305 289.774C222.79 289.604 222.406 289.167 222.309 288.637L221.352 283.302H226.871V283.302Z" fill="url(#paint59_linear)"/>
<path d="M265.304 295.832C266.762 295.628 267.418 294.875 267.695 294.064C267.695 294.074 267.699 294.078 267.699 294.083C267.913 294.938 267.418 295.818 266.426 296.241C265.226 296.751 263.914 296.833 262.894 296.794C261.801 296.751 260.8 296.299 260.246 295.575L260.236 295.565C261.334 296.105 262.875 296.168 265.304 295.832Z" fill="url(#paint60_linear)"/>
<path d="M258.439 283.263H260.878C264.595 283.186 266.927 291.027 267.695 294.064C267.418 294.87 266.762 295.628 265.304 295.832C262.875 296.173 261.335 296.109 260.241 295.565C258.235 292.922 257.239 289.055 256.758 286.796C256.213 284.225 258.439 283.263 258.439 283.263Z" fill="url(#paint61_linear)"/>
<path d="M260.567 278.181L261.923 283.569C262.088 284.23 261.772 284.915 261.16 285.226C260.402 285.615 259.333 286.023 258.356 285.906C257.895 285.853 257.511 285.527 257.36 285.09L255.373 279.42L260.567 278.181Z" fill="url(#paint62_linear)"/>
<path d="M262.18 279.736C260.494 281.233 255.013 281.427 255.013 281.427C235.262 234.027 227.027 220.977 227.027 220.977C229.879 238.871 227.644 284.794 227.644 284.794C224.383 286.232 220.181 284.794 220.181 284.794C219.918 255.502 215.793 224.028 210.473 203.889C223.82 203.588 231.079 200.678 233.396 198.846C244.523 216.789 262.18 279.736 262.18 279.736Z" fill="url(#paint63_linear)"/>
<path d="M150.807 143.94C150.807 143.94 149.937 142.37 150.034 141.107C150.127 139.844 149.34 137.988 150.18 138.129C151.016 138.265 151.191 138.153 151.419 139.669C151.638 141.185 153.683 146.772 150.807 143.94Z" fill="url(#paint64_linear)"/>
<path d="M157.133 134.562C157.123 134.324 157.007 134.106 156.822 133.96C156.633 133.814 156.39 133.761 156.161 133.814L150.384 135.126C150.161 135.18 150.01 135.388 150.034 135.617L151.715 150.63C151.72 150.693 151.754 150.756 151.808 150.795C151.861 150.834 151.924 150.853 151.988 150.844L157.031 150.231C157.444 150.183 157.75 149.823 157.731 149.405L157.133 134.562Z" fill="url(#paint65_linear)"/>
<path d="M155.51 135.432C155.5 135.296 155.437 135.175 155.325 135.092C155.219 135.014 155.078 134.985 154.947 135.019L151.147 135.971C150.928 136.025 150.783 136.234 150.807 136.462L152.25 149.25C152.26 149.318 152.294 149.376 152.347 149.42C152.401 149.459 152.469 149.478 152.537 149.464L156.04 148.842C156.161 148.822 156.249 148.711 156.239 148.589L155.51 135.432Z" fill="url(#paint66_linear)"/>
<path d="M153.324 135.087C153.333 135.131 153.27 135.184 153.183 135.204L151.91 135.466C151.822 135.486 151.745 135.461 151.735 135.418L151.725 135.374C151.715 135.33 151.779 135.277 151.866 135.257L153.139 134.995C153.226 134.975 153.304 135 153.314 135.043L153.324 135.087Z" fill="url(#paint67_linear)"/>
<path d="M159.14 138.381C158.207 138.036 156.38 134.878 156.03 135.918C155.68 136.958 156.176 138.381 156.03 138.823C155.884 139.266 154.874 141.724 155.325 142.851C155.656 143.667 156.195 146.174 156.472 147.511C156.564 147.953 156.953 148.268 157.405 148.273C157.857 148.273 158.246 147.958 158.338 147.515C158.377 147.331 160.072 138.721 159.14 138.381Z" fill="url(#paint68_linear)"/>
<path d="M220.254 191.68C219.807 191.772 219.447 192.054 219.272 192.438L216.877 197.787C216.561 198.496 216.94 199.371 217.742 199.764L229.898 205.745C230.316 205.949 230.792 205.993 231.205 205.857C231.618 205.726 231.929 205.429 232.065 205.046L233.479 201.023C233.698 200.396 233.411 199.667 232.775 199.254L221.604 191.942C221.196 191.685 220.705 191.582 220.254 191.68Z" fill="url(#paint69_linear)"/>
<path d="M240.913 180.762C243.512 161.129 228.382 146.034 228.382 146.034L219.379 156.528C226.215 165.045 229.461 172.853 230.948 178.984C232.915 178.406 237.653 177.502 240.913 180.762Z" fill="url(#paint70_linear)"/>
<path d="M230.943 179.538C230.69 179.538 230.462 179.368 230.403 179.111C228.572 171.551 224.719 164.068 218.942 156.873C218.747 156.635 218.786 156.28 219.029 156.091C219.267 155.896 219.622 155.935 219.811 156.178C225.69 163.505 229.616 171.133 231.487 178.853C231.56 179.154 231.375 179.456 231.074 179.524C231.03 179.533 230.986 179.538 230.943 179.538Z" fill="url(#paint71_linear)"/>
<path d="M230.948 179.708C232.328 185.407 232.182 189.658 231.973 191.689C231.895 192.457 231.278 193.055 230.51 193.108C229.641 193.171 228.45 193.249 227.391 193.312C226.225 193.38 224.933 192.642 224.068 192.025C223.626 191.709 223.057 192.199 223.3 192.68C223.946 193.944 225.584 195.066 226.716 195.732C227.129 195.975 227.051 196.587 226.589 196.718L223.49 197.597C223.14 197.695 222.877 197.986 222.809 198.346C222.746 198.705 222.887 199.069 223.183 199.283C230.316 204.574 234.937 197.199 234.937 197.199C238.44 191.787 240.252 186.491 240.913 181.491C237.653 178.231 232.916 179.135 230.948 179.708Z" fill="url(#paint72_linear)"/>
<path d="M146.133 81.0852C140.167 81.7733 137.484 86.4489 137.406 92.4605C137.323 98.4114 144.196 106.7 147.568 110.403C148.509 111.445 150.168 111.353 150.997 110.231C153.854 106.351 159.481 97.9327 159.162 92.1529C158.831 86.1549 153.542 80.2296 146.133 81.0852ZM147.874 98.8265C144.411 98.8777 141.701 96.5573 141.511 93.1004C141.32 89.6435 142.64 87.0844 147.558 85.9628C151.767 85.0039 154.014 88.7582 154.474 92.1913C155.027 96.3563 152.621 98.7654 147.874 98.8265Z" fill="#343B33"/>
<path d="M148.241 111.923C147.563 111.96 146.909 111.701 146.442 111.208C143.271 107.891 135.887 99.521 135.824 93.4546C135.79 90.3359 136.476 87.6435 137.811 85.6686C139.281 83.4897 141.482 82.1816 144.354 81.7789C147.589 81.3264 150.743 82.1781 153.236 84.1799C155.808 86.2458 157.497 89.3982 157.753 92.6118C157.954 95.1421 157.058 98.461 155.09 102.478C153.455 105.811 151.426 108.92 150.011 110.942C149.61 111.512 148.981 111.868 148.284 111.92C148.269 111.921 148.255 111.922 148.241 111.923ZM144.379 81.9621C141.562 82.3559 139.404 83.6378 137.964 85.7718C136.652 87.7157 135.975 90.3718 136.01 93.4517C136.072 99.4527 143.421 107.777 146.577 111.08C147.017 111.544 147.635 111.782 148.271 111.735C148.911 111.688 149.491 111.361 149.86 110.836C152.333 107.303 158.033 98.4593 157.57 92.6264C157.317 89.4617 155.655 86.3585 153.122 84.3232C150.667 82.355 147.563 81.5154 144.379 81.9621ZM146.787 99.6443C146.705 99.6488 146.622 99.6534 146.539 99.655C144.827 99.7213 143.227 99.2021 142.032 98.1932C140.819 97.1689 140.077 95.6793 139.945 93.9998C139.628 90.0183 141.461 87.7435 145.886 86.6208C147.398 86.2381 148.761 86.4383 149.941 87.2158C151.51 88.2503 152.678 90.3208 153.065 92.7559C153.372 94.7057 153.036 96.2935 152.064 97.4742C151.003 98.7655 149.181 99.5122 146.787 99.6443ZM147.046 86.6268C146.684 86.6468 146.312 86.7045 145.931 86.8015C140.393 88.2059 139.92 91.3793 140.127 93.9868C140.257 95.6173 140.975 97.062 142.149 98.0527C143.308 99.0324 144.864 99.5361 146.53 99.4709C148.995 99.3795 150.856 98.6485 151.919 97.3586C152.856 96.22 153.179 94.6821 152.881 92.787C152.502 90.4019 151.364 88.3775 149.838 87.3719C149.001 86.8196 148.065 86.5705 147.046 86.6268Z" fill="#343B33"/>
<defs>
<linearGradient id="paint0_linear" x1="58.8955" y1="64.9934" x2="155.054" y2="64.9934" gradientUnits="userSpaceOnUse">
<stop stop-color="#A737D5"/>
<stop offset="1" stop-color="#EF497A"/>
</linearGradient>
<linearGradient id="paint1_linear" x1="142.378" y1="38.4598" x2="207.882" y2="38.4598" gradientUnits="userSpaceOnUse">
<stop stop-color="#A737D5"/>
<stop offset="1" stop-color="#EF497A"/>
</linearGradient>
<linearGradient id="paint2_linear" x1="190.097" y1="153.678" x2="297.251" y2="153.678" gradientUnits="userSpaceOnUse">
<stop stop-color="#685DA8" stop-opacity="0.89"/>
<stop offset="1" stop-color="#804794"/>
</linearGradient>
<linearGradient id="paint3_linear" x1="120.02" y1="175.549" x2="214.073" y2="175.549" gradientUnits="userSpaceOnUse">
<stop stop-color="#8B75C8"/>
<stop offset="1" stop-color="#95B7F8"/>
</linearGradient>
<linearGradient id="paint4_linear" x1="137.777" y1="252.548" x2="73.83" y2="91.6542" gradientUnits="userSpaceOnUse">
<stop stop-color="#15CE54"/>
<stop offset="1" stop-color="#1D9FBC"/>
</linearGradient>
<linearGradient id="paint5_linear" x1="93.6888" y1="167.085" x2="116.128" y2="163.55" gradientUnits="userSpaceOnUse">
<stop stop-color="#2B3582"/>
<stop offset="1" stop-color="#150E42"/>
</linearGradient>
<linearGradient id="paint6_linear" x1="87.3048" y1="267.622" x2="79.5794" y2="195.83" gradientUnits="userSpaceOnUse">
<stop stop-color="#30DB2D"/>
<stop offset="1" stop-color="#708FFF"/>
</linearGradient>
<linearGradient id="paint7_linear" x1="73.891" y1="219.113" x2="89.1129" y2="215.438" gradientUnits="userSpaceOnUse">
<stop stop-color="#2B3582"/>
<stop offset="1" stop-color="#150E42"/>
</linearGradient>
<linearGradient id="paint8_linear" x1="368.129" y1="282.38" x2="416.652" y2="83.2259" gradientUnits="userSpaceOnUse">
<stop stop-color="#45DB2D"/>
<stop offset="1" stop-color="#70FFCC"/>
</linearGradient>
<linearGradient id="paint9_linear" x1="379.261" y1="185.928" x2="405.097" y2="185.928" gradientUnits="userSpaceOnUse">
<stop stop-color="#2B8243"/>
<stop offset="1" stop-color="#150E42"/>
</linearGradient>
<linearGradient id="paint10_linear" x1="410.287" y1="155.213" x2="412.726" y2="136.509" gradientUnits="userSpaceOnUse">
<stop stop-color="#2DB1DB"/>
<stop offset="1" stop-color="#95FF70"/>
</linearGradient>
<linearGradient id="paint11_linear" x1="408.099" y1="257.816" x2="441.197" y2="170.056" gradientUnits="userSpaceOnUse">
<stop stop-color="#15CE49"/>
<stop offset="1" stop-color="#1DA9BC"/>
</linearGradient>
<linearGradient id="paint12_linear" x1="421.178" y1="193.769" x2="440.55" y2="198.324" gradientUnits="userSpaceOnUse">
<stop stop-color="#2B8243"/>
<stop offset="1" stop-color="#4F7A3A"/>
</linearGradient>
<linearGradient id="paint13_linear" x1="249.17" y1="198.176" x2="256.944" y2="428.502" gradientUnits="userSpaceOnUse">
<stop stop-color="#9F5699"/>
<stop offset="1" stop-color="#202278"/>
</linearGradient>
<linearGradient id="paint14_linear" x1="248.272" y1="198.176" x2="256.049" y2="428.573" gradientUnits="userSpaceOnUse">
<stop stop-color="#9F5699"/>
<stop offset="1" stop-color="#202278"/>
</linearGradient>
<linearGradient id="paint15_linear" x1="247.385" y1="198.212" x2="255.161" y2="428.571" gradientUnits="userSpaceOnUse">
<stop stop-color="#9F5699"/>
<stop offset="1" stop-color="#202278"/>
</linearGradient>
<linearGradient id="paint16_linear" x1="21.4439" y1="49.9669" x2="47.5753" y2="29.3401" gradientUnits="userSpaceOnUse">
<stop stop-color="#53D8FF"/>
<stop offset="1" stop-color="#3840F7"/>
</linearGradient>
<linearGradient id="paint17_linear" x1="38.2631" y1="44.1278" x2="67.2471" y2="8.14064" gradientUnits="userSpaceOnUse">
<stop stop-color="#53D8FF"/>
<stop offset="1" stop-color="#3840F7"/>
</linearGradient>
<linearGradient id="paint18_linear" x1="23.7429" y1="49.7703" x2="48.1535" y2="30.5017" gradientUnits="userSpaceOnUse">
<stop stop-color="#53D8FF"/>
<stop offset="1" stop-color="#3840F7"/>
</linearGradient>
<linearGradient id="paint19_linear" x1="37.1438" y1="41.5811" x2="51.023" y2="38.2021" gradientUnits="userSpaceOnUse">
<stop stop-color="#53D8FF"/>
<stop offset="1" stop-color="#3840F7"/>
</linearGradient>
<linearGradient id="paint20_linear" x1="255.858" y1="270.378" x2="284.039" y2="270.378" gradientUnits="userSpaceOnUse">
<stop stop-color="#2B3582"/>
<stop offset="1" stop-color="#150E42"/>
</linearGradient>
<linearGradient id="paint21_linear" x1="413.769" y1="270.378" x2="441.95" y2="270.378" gradientUnits="userSpaceOnUse">
<stop stop-color="#2B3582"/>
<stop offset="1" stop-color="#150E42"/>
</linearGradient>
<linearGradient id="paint22_linear" x1="249.542" y1="198.129" x2="278.057" y2="198.129" gradientUnits="userSpaceOnUse">
<stop stop-color="#FDF53F"/>
<stop offset="1" stop-color="#D93C65"/>
</linearGradient>
<linearGradient id="paint23_linear" x1="448.266" y1="198.129" x2="420.169" y2="198.129" gradientUnits="userSpaceOnUse">
<stop stop-color="#FDF53F"/>
<stop offset="1" stop-color="#D93C65"/>
</linearGradient>
<linearGradient id="paint24_linear" x1="349.422" y1="190.101" x2="348.077" y2="352.9" gradientUnits="userSpaceOnUse">
<stop stop-color="#FDF53F"/>
<stop offset="1" stop-color="#D93C65"/>
</linearGradient>
<linearGradient id="paint25_linear" x1="348.406" y1="171.042" x2="349.863" y2="349.585" gradientUnits="userSpaceOnUse">
<stop stop-color="#AC7B1D"/>
<stop offset="0.33293" stop-color="#C26B3C"/>
<stop offset="1" stop-color="#EF497A"/>
</linearGradient>
<linearGradient id="paint26_linear" x1="261.346" y1="234.535" x2="301.873" y2="234.535" gradientUnits="userSpaceOnUse">
<stop stop-color="#9CFFFB"/>
<stop offset="1" stop-color="#9BFFFA"/>
</linearGradient>
<linearGradient id="paint27_linear" x1="436.948" y1="234.535" x2="396.421" y2="234.535" gradientUnits="userSpaceOnUse">
<stop stop-color="#9CFFFB"/>
<stop offset="1" stop-color="#9BFFFA"/>
</linearGradient>
<linearGradient id="paint28_linear" x1="304.435" y1="238.312" x2="393.859" y2="238.312" gradientUnits="userSpaceOnUse">
<stop stop-color="#AC7B1D"/>
<stop offset="1" stop-color="#EF497A"/>
</linearGradient>
<linearGradient id="paint29_linear" x1="281.332" y1="187.054" x2="416.962" y2="187.054" gradientUnits="userSpaceOnUse">
<stop stop-color="#53EAC9"/>
<stop offset="0.9964" stop-color="#45AED8"/>
</linearGradient>
<linearGradient id="paint30_linear" x1="293.653" y1="174.746" x2="405.716" y2="174.746" gradientUnits="userSpaceOnUse">
<stop stop-color="#9CFFFB"/>
<stop offset="1" stop-color="#9BFFFA"/>
</linearGradient>
<linearGradient id="paint31_linear" x1="324.913" y1="100" x2="423.68" y2="53.0389" gradientUnits="userSpaceOnUse">
<stop stop-color="#FF940F"/>
<stop offset="0.15625" stop-color="#FF940F"/>
<stop offset="0.333333" stop-color="#FF395C"/>
<stop offset="0.567708" stop-color="#FF940F"/>
<stop offset="0.776042" stop-color="#FF6A32"/>
<stop offset="1" stop-color="#FF256E"/>
</linearGradient>
<linearGradient id="paint32_linear" x1="95.949" y1="290.702" x2="108.804" y2="290.702" gradientUnits="userSpaceOnUse">
<stop stop-color="#2B3582"/>
<stop offset="1" stop-color="#150E42"/>
</linearGradient>
<linearGradient id="paint33_linear" x1="128.132" y1="275.537" x2="81.3663" y2="312.26" gradientUnits="userSpaceOnUse">
<stop stop-color="#53D8FF"/>
<stop offset="1" stop-color="#3840F7"/>
</linearGradient>
<linearGradient id="paint34_linear" x1="99.5243" y1="276.067" x2="97.069" y2="297.497" gradientUnits="userSpaceOnUse">
<stop stop-color="#F9B776"/>
<stop offset="1" stop-color="#F47960"/>
</linearGradient>
<linearGradient id="paint35_linear" x1="136.44" y1="286.102" x2="89.6746" y2="322.825" gradientUnits="userSpaceOnUse">
<stop stop-color="#53D8FF"/>
<stop offset="1" stop-color="#3840F7"/>
</linearGradient>
<linearGradient id="paint36_linear" x1="115.525" y1="291.029" x2="134.03" y2="291.029" gradientUnits="userSpaceOnUse">
<stop stop-color="#2B3582"/>
<stop offset="1" stop-color="#150E42"/>
</linearGradient>
<linearGradient id="paint37_linear" x1="119.192" y1="278.331" x2="118.089" y2="299.872" gradientUnits="userSpaceOnUse">
<stop stop-color="#F9B776"/>
<stop offset="1" stop-color="#F47960"/>
</linearGradient>
<linearGradient id="paint38_linear" x1="116.72" y1="258.408" x2="-23.2368" y2="86.7197" gradientUnits="userSpaceOnUse">
<stop stop-color="#53D8FF"/>
<stop offset="1" stop-color="#3840F7"/>
</linearGradient>
<linearGradient id="paint39_linear" x1="147.771" y1="170.709" x2="175.13" y2="170.709" gradientUnits="userSpaceOnUse">
<stop stop-color="#F9B776"/>
<stop offset="1" stop-color="#F47960"/>
</linearGradient>
<linearGradient id="paint40_linear" x1="184.66" y1="149.229" x2="186.268" y2="190.319" gradientUnits="userSpaceOnUse">
<stop stop-color="#53D8FF"/>
<stop offset="1" stop-color="#3840F7"/>
</linearGradient>
<linearGradient id="paint41_linear" x1="128.423" y1="146.217" x2="114.093" y2="160.84" gradientUnits="userSpaceOnUse">
<stop stop-color="#FDF53F"/>
<stop offset="0.294" stop-color="#F2BF4A"/>
<stop offset="1" stop-color="#D93C65"/>
</linearGradient>
<linearGradient id="paint42_linear" x1="164.749" y1="144.499" x2="121.83" y2="165.85" gradientUnits="userSpaceOnUse">
<stop stop-color="#F9B776"/>
<stop offset="1" stop-color="#F47960"/>
</linearGradient>
<linearGradient id="paint43_linear" x1="131.288" y1="134.972" x2="72.1241" y2="239.662" gradientUnits="userSpaceOnUse">
<stop stop-color="#FDF53F"/>
<stop offset="0.294" stop-color="#F2BF4A"/>
<stop offset="1" stop-color="#D93C65"/>
</linearGradient>
<linearGradient id="paint44_linear" x1="109.32" y1="151.166" x2="115.023" y2="135.592" gradientUnits="userSpaceOnUse">
<stop stop-color="#F9B776"/>
<stop offset="1" stop-color="#F47960"/>
</linearGradient>
<linearGradient id="paint45_linear" x1="137.582" y1="169.276" x2="95.1844" y2="242.949" gradientUnits="userSpaceOnUse">
<stop stop-color="#F9B776"/>
<stop offset="1" stop-color="#F47960"/>
</linearGradient>
<linearGradient id="paint46_linear" x1="111.101" y1="163.721" x2="100.975" y2="163.721" gradientUnits="userSpaceOnUse">
<stop stop-color="#FDF53F"/>
<stop offset="0.294" stop-color="#F2BF4A"/>
<stop offset="1" stop-color="#D93C65"/>
</linearGradient>
<linearGradient id="paint47_linear" x1="120.883" y1="152.404" x2="103.44" y2="152.404" gradientUnits="userSpaceOnUse">
<stop stop-color="#FDF53F"/>
<stop offset="0.294" stop-color="#F2BF4A"/>
<stop offset="1" stop-color="#D93C65"/>
</linearGradient>
<linearGradient id="paint48_linear" x1="123.338" y1="127.805" x2="89.3585" y2="154.87" gradientUnits="userSpaceOnUse">
<stop stop-color="#F9B776"/>
<stop offset="1" stop-color="#F47960"/>
</linearGradient>
<linearGradient id="paint49_linear" x1="110.22" y1="118.902" x2="125.794" y2="138.955" gradientUnits="userSpaceOnUse">
<stop stop-color="#2B3582"/>
<stop offset="1" stop-color="#150E42"/>
</linearGradient>
<linearGradient id="paint50_linear" x1="119.917" y1="126.322" x2="103.195" y2="139.118" gradientUnits="userSpaceOnUse">
<stop stop-color="#F9B776"/>
<stop offset="1" stop-color="#F47960"/>
</linearGradient>
<linearGradient id="paint51_linear" x1="147.276" y1="177.626" x2="154.018" y2="177.626" gradientUnits="userSpaceOnUse">
<stop stop-color="#F9B776"/>
<stop offset="1" stop-color="#F47960"/>
</linearGradient>
<linearGradient id="paint52_linear" x1="197.026" y1="163.284" x2="253.745" y2="193.481" gradientUnits="userSpaceOnUse">
<stop stop-color="#53D8FF"/>
<stop offset="1" stop-color="#3840F7"/>
</linearGradient>
<linearGradient id="paint53_linear" x1="208.985" y1="143.346" x2="204.599" y2="130.186" gradientUnits="userSpaceOnUse">
<stop stop-color="#F9B776"/>
<stop offset="1" stop-color="#F47960"/>
</linearGradient>
<linearGradient id="paint54_linear" x1="205.533" y1="124.442" x2="201.152" y2="150.22" gradientUnits="userSpaceOnUse">
<stop stop-color="#F9B776"/>
<stop offset="1" stop-color="#F47960"/>
</linearGradient>
<linearGradient id="paint55_linear" x1="210.14" y1="136.643" x2="197.23" y2="122.929" gradientUnits="userSpaceOnUse">
<stop stop-color="#2B3582"/>
<stop offset="1" stop-color="#150E42"/>
</linearGradient>
<linearGradient id="paint56_linear" x1="209.334" y1="152.579" x2="210.113" y2="134.477" gradientUnits="userSpaceOnUse">
<stop stop-color="#F9B776"/>
<stop offset="1" stop-color="#F47960"/>
</linearGradient>
<linearGradient id="paint57_linear" x1="228.681" y1="295.856" x2="209.085" y2="295.856" gradientUnits="userSpaceOnUse">
<stop stop-color="#CE1567"/>
<stop offset="1" stop-color="#7A1DBC"/>
</linearGradient>
<linearGradient id="paint58_linear" x1="228.682" y1="292.016" x2="209.638" y2="292.016" gradientUnits="userSpaceOnUse">
<stop stop-color="#53D8FF"/>
<stop offset="1" stop-color="#3840F7"/>
</linearGradient>
<linearGradient id="paint59_linear" x1="226.872" y1="286.654" x2="221.352" y2="286.654" gradientUnits="userSpaceOnUse">
<stop stop-color="#F9B776"/>
<stop offset="1" stop-color="#F47960"/>
</linearGradient>
<linearGradient id="paint60_linear" x1="267.748" y1="295.434" x2="260.238" y2="295.434" gradientUnits="userSpaceOnUse">
<stop stop-color="#CE1567"/>
<stop offset="1" stop-color="#7A1DBC"/>
</linearGradient>
<linearGradient id="paint61_linear" x1="267.693" y1="289.652" x2="256.671" y2="289.652" gradientUnits="userSpaceOnUse">
<stop stop-color="#53D8FF"/>
<stop offset="1" stop-color="#3840F7"/>
</linearGradient>
<linearGradient id="paint62_linear" x1="261.964" y1="282.053" x2="255.367" y2="282.053" gradientUnits="userSpaceOnUse">
<stop stop-color="#F9B776"/>
<stop offset="1" stop-color="#F47960"/>
</linearGradient>
<linearGradient id="paint63_linear" x1="259.635" y1="287.233" x2="158.98" y2="148.066" gradientUnits="userSpaceOnUse">
<stop stop-color="#CE1567"/>
<stop offset="1" stop-color="#7A1DBC"/>
</linearGradient>
<linearGradient id="paint64_linear" x1="152.725" y1="139.042" x2="146.546" y2="147.761" gradientUnits="userSpaceOnUse">
<stop stop-color="#F9B776"/>
<stop offset="1" stop-color="#F47960"/>
</linearGradient>
<linearGradient id="paint65_linear" x1="159.807" y1="134.203" x2="138.165" y2="164.739" gradientUnits="userSpaceOnUse">
<stop stop-color="#2B3582"/>
<stop offset="1" stop-color="#150E42"/>
</linearGradient>
<linearGradient id="paint66_linear" x1="158.317" y1="135.702" x2="140.883" y2="160.301" gradientUnits="userSpaceOnUse">
<stop stop-color="#FDF53F"/>
<stop offset="1" stop-color="#D93C65"/>
</linearGradient>
<linearGradient id="paint67_linear" x1="152.852" y1="134.867" x2="152.618" y2="136.395" gradientUnits="userSpaceOnUse">
<stop stop-color="#8D55D1"/>
<stop offset="0.9964" stop-color="#1C2873"/>
</linearGradient>
<linearGradient id="paint68_linear" x1="160.297" y1="137.372" x2="147.507" y2="155.418" gradientUnits="userSpaceOnUse">
<stop stop-color="#F9B776"/>
<stop offset="1" stop-color="#F47960"/>
</linearGradient>
<linearGradient id="paint69_linear" x1="225.167" y1="190.335" x2="225.134" y2="222.462" gradientUnits="userSpaceOnUse">
<stop stop-color="#2B3582"/>
<stop offset="1" stop-color="#150E42"/>
</linearGradient>
<linearGradient id="paint70_linear" x1="205.12" y1="149.44" x2="266.099" y2="181.905" gradientUnits="userSpaceOnUse">
<stop stop-color="#53D8FF"/>
<stop offset="1" stop-color="#3840F7"/>
</linearGradient>
<linearGradient id="paint71_linear" x1="215.504" y1="162.612" x2="234.818" y2="172.894" gradientUnits="userSpaceOnUse">
<stop stop-color="#53D8FF"/>
<stop offset="1" stop-color="#3840F7"/>
</linearGradient>
<linearGradient id="paint72_linear" x1="235.621" y1="182.409" x2="221.364" y2="209.828" gradientUnits="userSpaceOnUse">
<stop stop-color="#F9B776"/>
<stop offset="1" stop-color="#F47960"/>
</linearGradient>
</defs>
</svg>
