<svg width="104" height="48" viewBox="0 0 104 48" fill="none" xmlns="http://www.w3.org/2000/svg">
<path d="M53.686 23.628C53.686 26.4033 52.8963 28.4963 51.317 29.907C49.753 31.3023 47.5527 32 44.716 32H40.07V15.578H45.222C46.9393 15.578 48.4267 15.8847 49.684 16.498C50.9567 17.1113 51.938 18.016 52.628 19.212C53.3333 20.3927 53.686 21.8647 53.686 23.628ZM50.075 23.72C50.075 21.8953 49.6763 20.5613 48.879 19.718C48.0817 18.8593 46.924 18.43 45.406 18.43H43.543V29.125H45.038C48.396 29.125 50.075 27.3233 50.075 23.72ZM59.3954 31.977C59.2574 32.0077 59.0734 32.046 58.8434 32.092C58.6134 32.138 58.3527 32.161 58.0614 32.161C57.5247 32.161 57.1261 32.0613 56.8654 31.862C56.6047 31.6627 56.4744 31.31 56.4744 30.804V23.513C56.4744 23.1143 56.5664 22.777 56.7504 22.501C56.9344 22.225 57.2027 21.9797 57.5554 21.765C58.0307 21.4737 58.6134 21.236 59.3034 21.052C60.0087 20.868 60.7677 20.776 61.5804 20.776C63.0371 20.776 63.7654 21.2283 63.7654 22.133C63.7654 22.3477 63.7271 22.5547 63.6504 22.754C63.5891 22.938 63.5201 23.0913 63.4434 23.214C63.0907 23.1373 62.6537 23.099 62.1324 23.099C61.5957 23.099 61.0897 23.1603 60.6144 23.283C60.1391 23.4057 59.7327 23.559 59.3954 23.743V31.977ZM65.731 21.19C65.8537 21.1593 66.03 21.121 66.26 21.075C66.5053 21.029 66.766 21.006 67.042 21.006C67.594 21.006 67.9927 21.1057 68.238 21.305C68.4987 21.5043 68.629 21.857 68.629 22.363V31.977C68.5063 32.0077 68.3223 32.046 68.077 32.092C67.847 32.138 67.594 32.161 67.318 32.161C66.766 32.161 66.3597 32.0613 66.099 31.862C65.8537 31.6627 65.731 31.31 65.731 30.804V21.19ZM65.501 17.855C65.501 17.4103 65.6543 17.0347 65.961 16.728C66.283 16.406 66.6893 16.245 67.18 16.245C67.6707 16.245 68.0693 16.406 68.376 16.728C68.6827 17.0347 68.836 17.4103 68.836 17.855C68.836 18.315 68.6827 18.706 68.376 19.028C68.0693 19.3347 67.6707 19.488 67.18 19.488C66.6893 19.488 66.283 19.3347 65.961 19.028C65.6543 18.706 65.501 18.315 65.501 17.855ZM74.5565 28.619C74.5565 29.1097 74.7022 29.4623 74.9935 29.677C75.3002 29.8917 75.7219 29.999 76.2585 29.999C76.5192 29.999 76.7799 29.9683 77.0405 29.907C77.3165 29.8457 77.5619 29.769 77.7765 29.677C77.8992 29.7997 77.9989 29.953 78.0755 30.137C78.1675 30.3057 78.2135 30.505 78.2135 30.735C78.2135 31.195 78.0065 31.5783 77.5925 31.885C77.1785 32.1763 76.5115 32.322 75.5915 32.322C74.3802 32.322 73.4219 32.0537 72.7165 31.517C72.0265 30.965 71.6815 30.0603 71.6815 28.803V18.246C71.8042 18.2153 71.9805 18.177 72.2105 18.131C72.4559 18.085 72.7165 18.062 72.9925 18.062C73.5292 18.062 73.9202 18.1617 74.1655 18.361C74.4262 18.5603 74.5565 18.913 74.5565 19.419V21.328H77.9375C78.0142 21.4507 78.0832 21.6117 78.1445 21.811C78.2059 22.0103 78.2365 22.225 78.2365 22.455C78.2365 22.8537 78.1445 23.145 77.9605 23.329C77.7765 23.513 77.5312 23.605 77.2245 23.605H74.5565V28.619ZM80.6001 21.19C80.7228 21.1593 80.8991 21.121 81.1291 21.075C81.3745 21.029 81.6351 21.006 81.9111 21.006C82.4631 21.006 82.8618 21.1057 83.1071 21.305C83.3678 21.5043 83.4981 21.857 83.4981 22.363V31.977C83.3755 32.0077 83.1915 32.046 82.9461 32.092C82.7161 32.138 82.4631 32.161 82.1871 32.161C81.6351 32.161 81.2288 32.0613 80.9681 31.862C80.7228 31.6627 80.6001 31.31 80.6001 30.804V21.19ZM80.3701 17.855C80.3701 17.4103 80.5235 17.0347 80.8301 16.728C81.1521 16.406 81.5585 16.245 82.0491 16.245C82.5398 16.245 82.9385 16.406 83.2451 16.728C83.5518 17.0347 83.7051 17.4103 83.7051 17.855C83.7051 18.315 83.5518 18.706 83.2451 19.028C82.9385 19.3347 82.5398 19.488 82.0491 19.488C81.5585 19.488 81.1521 19.3347 80.8301 19.028C80.5235 18.706 80.3701 18.315 80.3701 17.855ZM89.4257 25.583L85.3777 19.442H89.2647L91.7027 23.444L94.1637 19.442H98.0507L93.9567 25.583L98.2347 32H94.3477L91.7027 27.699L89.0577 32H85.1707L89.4257 25.583Z" fill="url(#paint0_linear)"/>
<path d="M7.45378 28.2723L17.3008 40.8967L27.1477 28.2723C34.247 18.6778 31.9449 4.53856 16.7957 4.53856C3.41389 4.53856 -0.0912037 18.4253 7.45378 28.2723Z" stroke="url(#paint1_linear)" stroke-width="7" stroke-linecap="round"/>
<path d="M27.276 14.8905C26.5768 8.83083 21.9738 0.801747 15.9141 1.00374C9.85445 1.20573 4.23382 4.28606 1.26988 11.1032C-1.25495 16.9104 0.76493 22.7176 0.76493 22.7176L8.33952 22.9701C8.33952 22.9701 7.62632 21.7989 7.32958 19.1828C7.03761 16.6088 7.14792 12.6038 8.84443 10.8507C12.2652 7.31592 19.1964 8.21765 19.9539 8.32586C23.4887 8.83083 26.2661 11.3557 27.276 14.8905Z" fill="url(#paint2_linear)"/>
<defs>
<linearGradient id="paint0_linear" x1="99.16" y1="3.36001" x2="42.8641" y2="9.81057" gradientUnits="userSpaceOnUse">
<stop stop-color="#FF6834"/>
<stop offset="0.114583" stop-color="#FF5C3F"/>
<stop offset="0.28125" stop-color="#FF5148"/>
<stop offset="0.572917" stop-color="#FF4A4E"/>
<stop offset="1" stop-color="#FF2470"/>
</linearGradient>
<linearGradient id="paint1_linear" x1="42.5791" y1="32.3121" x2="25.1575" y2="45.6939" gradientUnits="userSpaceOnUse">
<stop offset="0.145833" stop-color="#FF940F"/>
<stop offset="0.223958" stop-color="#FF801E"/>
<stop offset="0.390625" stop-color="#FF6139"/>
<stop offset="0.5625" stop-color="#FF4751"/>
<stop offset="0.65625" stop-color="#FF3F56"/>
<stop offset="0.838542" stop-color="#FF2171"/>
<stop offset="0.953125" stop-color="#FF236F"/>
<stop offset="1" stop-color="#FF940F"/>
</linearGradient>
<linearGradient id="paint2_linear" x1="16.4191" y1="1.50871" x2="1.0174" y2="26.2524" gradientUnits="userSpaceOnUse">
<stop stop-color="#FF3B5A"/>
<stop offset="0.166667" stop-color="#FF3261"/>
<stop offset="0.359375" stop-color="#FF3C5A"/>
<stop offset="0.588542" stop-color="#FF484F"/>
<stop offset="0.755208" stop-color="#FF6A32"/>
<stop offset="0.848958" stop-color="#FF940F"/>
<stop offset="1" stop-color="#FF940F"/>
</linearGradient>
</defs>
</svg>
